<?xml version="1.0" encoding="utf-8"?>
<!-- Generator: Adobe Illustrator 23.0.6, SVG Export Plug-In . SVG Version: 6.00 Build 0)  -->
<svg version="1.1" id="Layer_1" xmlns="http://www.w3.org/2000/svg" xmlns:xlink="http://www.w3.org/1999/xlink" x="0px" y="0px"
	 width="24.3px" height="29.6px" viewBox="0 0 24.3 29.6" style="enable-background:new 0 0 24.3 29.6;" xml:space="preserve">
<style type="text/css">
	.st0{clip-path:url(#SVGID_2_);}
	.st1{clip-path:url(#SVGID_4_);}
	.st2{clip-path:url(#SVGID_6_);}
</style>
<g>
	<defs>
		<rect id="SVGID_1_" x="-42.4" y="45.9" width="36.8" height="23.8"/>
	</defs>
	<clipPath id="SVGID_2_">
		<use xlink:href="#SVGID_1_"  style="overflow:visible;"/>
	</clipPath>
	<g id="Group_53" class="st0">
		<path id="Path_977" d="M-33.8,62.3c-2,0-3.6,1.7-3.6,3.7c0,2,1.7,3.6,3.7,3.6c2,0,3.6-1.6,3.6-3.7C-30.2,63.9-31.8,62.3-33.8,62.3
			 M-33.8,68.4c-1.3,0-2.4-1.1-2.4-2.5c0-1.3,1.1-2.4,2.5-2.4c1.3,0,2.4,1.1,2.4,2.4C-31.4,67.3-32.5,68.4-33.8,68.4"/>
		<path id="Path_978" d="M-13,62.3c-2,0-3.6,1.7-3.6,3.7c0,2,1.7,3.6,3.7,3.6c2,0,3.6-1.6,3.6-3.7C-9.3,63.9-11,62.3-13,62.3
			 M-13,68.4c-1.3,0-2.4-1.1-2.4-2.5s1.1-2.4,2.5-2.4c1.3,0,2.4,1.1,2.4,2.4C-10.6,67.3-11.7,68.4-13,68.4"/>
		<path id="Path_979" d="M-5.8,58.9l-5.5-8.5c-0.1-0.2-0.3-0.3-0.5-0.3h-6.7c-0.3,0-0.6,0.3-0.6,0.6c0,0,0,0,0,0V66
			c0,0.3,0.3,0.6,0.6,0.6c0,0,0,0,0,0h2.5v-1.2h-1.8v-14h5.8l5.2,8.1v5.9H-10v1.2h3.7c0.3,0,0.6-0.3,0.6-0.6c0,0,0,0,0,0v-6.7
			C-5.7,59.1-5.7,59-5.8,58.9"/>
		<path id="Path_980" d="M-15.5,58v-4.3h4.9v-1.2h-5.5c-0.3,0-0.6,0.3-0.6,0.6c0,0,0,0,0,0v5.5c0,0.3,0.3,0.6,0.6,0.6c0,0,0,0,0,0
			h9.2V58H-15.5L-15.5,58z"/>
		<path id="Path_981" d="M-18.5,45.9h-23.3c-0.3,0-0.6,0.3-0.6,0.6c0,0,0,0,0,0V66c0,0.3,0.3,0.6,0.6,0.6c0,0,0,0,0,0h4.9v-1.2h-4.3
			V47.1h22.1v18.3h-11.6v1.2h12.3c0.3,0,0.6-0.3,0.6-0.6c0,0,0,0,0,0V46.5C-17.9,46.1-18.2,45.9-18.5,45.9
			C-18.5,45.9-18.5,45.9-18.5,45.9"/>
		<rect id="Rectangle_29" x="-41.8" y="62.9" width="3.7" height="1.2"/>
		<rect id="Rectangle_30" x="-29.6" y="62.9" width="10.4" height="1.2"/>
		<rect id="Rectangle_31" x="-8.7" y="62.9" width="2.5" height="1.2"/>
		<rect id="Rectangle_32" x="-40" y="48.3" width="21.4" height="1.2"/>
		<rect id="Rectangle_33" x="-34.5" y="65.4" width="1.2" height="1.2"/>
		<rect id="Rectangle_34" x="-13.6" y="65.4" width="1.2" height="1.2"/>
	</g>
</g>
<g>
	<defs>
		<rect id="SVGID_3_" x="-42.7" y="-0.9" width="32.9" height="31.6"/>
	</defs>
	<clipPath id="SVGID_4_">
		<use xlink:href="#SVGID_3_"  style="overflow:visible;"/>
	</clipPath>
	<g id="Group_55" class="st1">
		<path id="Path_982" d="M-14.5,18.3c4.6-1.5,4.7-6.9,4.7-7.2c0-0.1,0-0.2-0.1-0.3c-0.1-0.2-3.4-4.5-8-3.1c-1.3,0.4-2.4,1.1-3.5,1.9
			c0.5-1.2,0.7-2.6,0.7-3.9c0-4.8-5.2-6.6-5.4-6.6c-0.1,0-0.2,0-0.4,0c-0.2,0.1-5.4,1.8-5.4,6.7c0,1.3,0.3,2.6,0.7,3.9
			c-1.1-0.8-2.2-1.5-3.5-1.9c-4.6-1.5-7.8,2.9-8,3.1c-0.1,0.1-0.1,0.2-0.1,0.3c0,0.2,0.1,5.7,4.7,7.2c1.3,0.4,2.6,0.6,3.9,0.5
			c-1.1,0.7-2.1,1.7-2.9,2.7c-2.8,3.9,0.3,8.3,0.5,8.5c0.1,0.1,0.2,0.2,0.3,0.2c0.9,0.3,1.8,0.4,2.7,0.4c4,0,6.1-2.4,7.2-6.1
			c1.1,3.8,3.3,6.1,7.2,6.1c0.9,0,1.8-0.1,2.7-0.4c0.1,0,0.2-0.1,0.3-0.2c0.1-0.2,3.3-4.7,0.5-8.5c-0.8-1.1-1.8-2-2.9-2.7
			C-17.1,18.9-15.8,18.7-14.5,18.3 M-26.3,0.2c0.8,0.3,4.5,2,4.5,5.5c0,3.2-1.8,6.5-3.8,9c-0.1,0-0.1,0.5-0.1-6.2
			c0-0.3-0.2-0.6-0.6-0.6c-0.3,0-0.6,0.2-0.6,0.6v5.8c-0.7-1-1.4-2-2.3-2.8c-1-1.7-1.6-3.7-1.6-5.7C-30.7,2.2-27.1,0.6-26.3,0.2
			 M-37.7,17.3c-3.4-1.1-3.8-5-3.9-5.9c0.6-0.7,3.3-3.6,6.6-2.5c3.1,1,5.7,3.7,7.4,6.4c-0.1,0.1,0.4,0.2-6-1.9
			c-0.3-0.1-0.6,0.1-0.7,0.4c-0.1,0.3,0.1,0.6,0.4,0.7l5.5,1.8c-1.2,0.3-2.3,0.8-3.4,1.3C-33.7,17.9-35.8,17.8-37.7,17.3
			 M-28.9,27.4c-2.1,2.9-6,2.1-6.8,1.9c-0.5-0.8-2.4-4.2-0.4-7.1c1.9-2.6,5.3-4.2,8.4-5c0.1,0.1,0.3-0.3-3.6,5.1
			c-0.2,0.3-0.1,0.6,0.2,0.8c0.2,0.1,0.5,0.1,0.7-0.1l3.4-4.7c0,1.2,0,2.4,0.2,3.6C-27,23.8-27.8,25.8-28.9,27.4L-28.9,27.4z
			 M-26.3,16.8c-0.3,0-0.6-0.3-0.6-0.6c0-0.3,0.3-0.6,0.6-0.6c0.3,0,0.6,0.3,0.6,0.6C-25.7,16.6-26,16.8-26.3,16.8
			C-26.3,16.8-26.3,16.8-26.3,16.8 M-16.5,22.2c2.1,2.9,0.1,6.3-0.4,7.1c-0.9,0.2-4.8,1-6.8-1.9c-1.9-2.6-2.4-6.3-2.2-9.5
			c0.1,0-0.2-0.4,3.7,5c0.2,0.3,0.5,0.4,0.8,0.2c0.3-0.2,0.4-0.5,0.2-0.8c0,0,0-0.1-0.1-0.1l-3.4-4.7c1.2,0.4,2.3,0.8,3.5,1
			C-19.3,19.4-17.7,20.6-16.5,22.2 M-24.6,16.4c0-0.1-0.4,0.1,5.9-2c0.3-0.1,0.4-0.4,0.4-0.7c-0.1-0.3-0.4-0.4-0.7-0.4l-5.5,1.8
			c0.7-1,1.4-2,2-3c1.4-1.5,3.1-2.6,5-3.3c3.3-1.1,6.1,1.8,6.6,2.5c-0.1,0.9-0.5,4.8-3.9,5.9C-17.9,18.3-21.6,17.6-24.6,16.4"/>
	</g>
</g>
<g>
	<defs>
		<rect id="SVGID_5_" x="0.9" y="1" width="22" height="27.7"/>
	</defs>
	<clipPath id="SVGID_6_">
		<use xlink:href="#SVGID_5_"  style="overflow:visible;"/>
	</clipPath>
	<g id="Group_57" class="st2">
		<path id="Path_983" d="M0.9,1.5v26.7c0,0.3,0.3,0.5,0.5,0.5h20.9c0.3,0,0.5-0.2,0.5-0.5V6.7c0,0,0,0,0,0c0,0,0-0.1,0-0.1
			c0,0,0,0,0,0c0-0.1-0.1-0.1-0.1-0.2l-5.5-5.1c0,0-0.1-0.1-0.2-0.1c0,0,0,0-0.1,0c0,0-0.1,0-0.1,0c0,0,0,0,0,0H1.4
			C1.1,1,0.9,1.2,0.9,1.5 M20.9,6.1h-3.6V2.8L20.9,6.1z M1.9,2h14.3v4.6c0,0.3,0.3,0.5,0.5,0.5h4.9v20.5H2L1.9,2z"/>
		<rect id="Rectangle_37" x="5.2" y="8.2" width="13.2" height="1"/>
		<rect id="Rectangle_38" x="5.2" y="5.1" width="4.4" height="1"/>
		<rect id="Rectangle_39" x="5.2" y="11.3" width="8.8" height="1"/>
		<rect id="Rectangle_40" x="15.1" y="11.3" width="3.3" height="1"/>
		<rect id="Rectangle_41" x="5.2" y="14.4" width="13.2" height="1"/>
		<rect id="Rectangle_42" x="5.2" y="20.5" width="13.2" height="1"/>
		<rect id="Rectangle_43" x="10.2" y="17.4" width="8.2" height="1"/>
		<rect id="Rectangle_44" x="5.2" y="17.4" width="3.8" height="1"/>
		<rect id="Rectangle_45" x="5.2" y="23.6" width="2.2" height="1"/>
		<rect id="Rectangle_46" x="8.5" y="23.6" width="9.9" height="1"/>
	</g>
</g>
</svg>
