<svg id="Lag_1" data-name="Lag 1" xmlns="http://www.w3.org/2000/svg" viewBox="0 0 142.92 131.78"><defs><style>.cls-1{fill:none;stroke:#000;stroke-miterlimit:10;stroke-width:4px;}</style></defs><path class="cls-1" d="M685.81,449.78s2-38-5-74c0,0-19,2-19-21V338.41l-7-11.63,16,3,10-9,8,7,14-1-4.33,11.63.33,15.37s0,22-18,22" transform="translate(-611.43 -318.11)"/><path class="cls-1" d="M686,442.07s-.06-.66-.22-1.89c-.88-6.52-4.86-29-20-53.4,0,0-10,9-20,3l-21-17-9-4,12-7v-13h14l7-12,3,9.4L668,363.91s6.83,10.87-1.17,21.87l-1,1" transform="translate(-611.43 -318.11)"/><path class="cls-1" d="M685.81,439.78s6-45,16-57c0,0,14,8,22-1l16-15,10-2-11-9-1-13h-11l-9-11-4,10L699,357.47l-1.79,6.94-1.55,3.51s-2.83,6.86,4.17,13.86l2,1" transform="translate(-611.43 -318.11)"/></svg>