<svg id="Lag_1" data-name="Lag 1" xmlns="http://www.w3.org/2000/svg" viewBox="0 0 133 120.57"><defs><style>.cls-1{fill:none;stroke:#000;stroke-miterlimit:10;stroke-width:3px;}</style></defs><circle class="cls-1" cx="42.5" cy="78.07" r="41"/><circle class="cls-1" cx="42.5" cy="78.07" r="33"/><circle class="cls-1" cx="90.5" cy="78.07" r="41"/><circle class="cls-1" cx="90.5" cy="78.07" r="33"/><path class="cls-1" d="M685.39,330.29l-5-4c-3-2-8,0-8,0-6,3-6,8-6,8-1,3,0,7,0,7a29.54,29.54,0,0,0,3,6c10,10,16,13,16,13,12-8,17-18,17-18,2-7,0-11,0-11a6.93,6.93,0,0,0-3-4,7.81,7.81,0,0,0-5-2c-4.75-.8-11,5-11,5" transform="translate(-616.39 -323.71)"/></svg>