<svg id="Lag_1" data-name="Lag 1" xmlns="http://www.w3.org/2000/svg" viewBox="0 0 104.85 146.1"><defs><style>.cls-1{fill:none;}.cls-1,.cls-2{stroke:#000;stroke-miterlimit:10;stroke-width:3px;}</style></defs><polygon class="cls-1" points="52.49 28.24 40.02 40.16 15.77 63.35 34.13 63.35 9.21 91.01 34.13 91.01 3.97 117.6 101.01 117.6 72.16 91.01 97.08 91.01 70.85 63.35 91.83 63.35 74.82 48.16 52.49 28.24"/><polygon class="cls-1" points="51.52 26.64 37.99 31.43 43.79 21.86 34.13 12.28 45.73 12.28 51.52 2.71 57.32 10.69 70.85 12.28 61.19 21.86 66.98 31.43 51.52 26.64"/><ellipse class="cls-2" cx="42.65" cy="48.99" rx="1.97" ry="1.6"/><ellipse class="cls-2" cx="62.32" cy="52.18" rx="1.97" ry="1.6"/><ellipse class="cls-2" cx="45.28" cy="66.01" rx="1.97" ry="1.6"/><ellipse class="cls-2" cx="25.61" cy="85.16" rx="1.97" ry="1.6"/><ellipse class="cls-2" cx="57.08" cy="80.9" rx="1.97" ry="1.6"/><ellipse class="cls-2" cx="61.01" cy="100.05" rx="1.97" ry="1.6"/><ellipse class="cls-2" cx="76.75" cy="84.09" rx="1.97" ry="1.6"/><ellipse class="cls-2" cx="29.54" cy="109.62" rx="1.97" ry="1.6"/><ellipse class="cls-2" cx="83.31" cy="113.88" rx="1.97" ry="1.6"/><rect class="cls-1" x="41.01" y="117.6" width="27" height="27"/></svg>