<?xml version="1.0" encoding="utf-8"?>
<!-- Generator: Adobe Illustrator 23.0.6, SVG Export Plug-In . SVG Version: 6.00 Build 0)  -->
<svg version="1.1" id="Layer_1" xmlns="http://www.w3.org/2000/svg" xmlns:xlink="http://www.w3.org/1999/xlink" x="0px" y="0px"
	 width="38.8px" height="26.9px" viewBox="0 0 38.8 26.9" style="enable-background:new 0 0 38.8 26.9;" xml:space="preserve">
<style type="text/css">
	.st0{clip-path:url(#SVGID_2_);}
</style>
<g>
	<defs>
		<rect id="SVGID_1_" x="1" y="1.9" width="36.8" height="23.8"/>
	</defs>
	<clipPath id="SVGID_2_">
		<use xlink:href="#SVGID_1_"  style="overflow:visible;"/>
	</clipPath>
	<g id="Group_53" class="st0">
		<path id="Path_977" d="M9.6,18.4c-2,0-3.6,1.7-3.6,3.7c0,2,1.7,3.6,3.7,3.6c2,0,3.6-1.6,3.6-3.7C13.2,20,11.6,18.4,9.6,18.4
			 M9.6,24.5c-1.3,0-2.4-1.1-2.4-2.5c0-1.3,1.1-2.4,2.5-2.4c1.3,0,2.4,1.1,2.4,2.4C12,23.4,10.9,24.5,9.6,24.5"/>
		<path id="Path_978" d="M30.4,18.4c-2,0-3.6,1.7-3.6,3.7c0,2,1.7,3.6,3.7,3.6c2,0,3.6-1.6,3.6-3.7C34.1,20,32.4,18.4,30.4,18.4
			 M30.4,24.5c-1.3,0-2.4-1.1-2.4-2.5s1.1-2.4,2.5-2.4c1.3,0,2.4,1.1,2.4,2.4C32.9,23.4,31.8,24.5,30.4,24.5"/>
		<path id="Path_979" d="M37.7,15l-5.5-8.5c-0.1-0.2-0.3-0.3-0.5-0.3h-6.7c-0.3,0-0.6,0.3-0.6,0.6c0,0,0,0,0,0V22
			c0,0.3,0.3,0.6,0.6,0.6c0,0,0,0,0,0h2.5v-1.2h-1.8v-14h5.8l5.2,8.1v5.9h-3.1v1.2h3.7c0.3,0,0.6-0.3,0.6-0.6c0,0,0,0,0,0v-6.7
			C37.8,15.2,37.7,15.1,37.7,15"/>
		<path id="Path_980" d="M28,14.1V9.8h4.9V8.6h-5.5c-0.3,0-0.6,0.3-0.6,0.6c0,0,0,0,0,0v5.5c0,0.3,0.3,0.6,0.6,0.6c0,0,0,0,0,0h9.2
			v-1.2H28L28,14.1z"/>
		<path id="Path_981" d="M24.9,1.9H1.6C1.3,1.9,1,2.2,1,2.5c0,0,0,0,0,0V22c0,0.3,0.3,0.6,0.6,0.6c0,0,0,0,0,0h4.9v-1.2H2.2V3.1
			h22.1v18.3H12.6v1.2h12.3c0.3,0,0.6-0.3,0.6-0.6c0,0,0,0,0,0V2.5C25.5,2.2,25.2,1.9,24.9,1.9C24.9,1.9,24.9,1.9,24.9,1.9"/>
		<rect id="Rectangle_29" x="1.6" y="19" width="3.7" height="1.2"/>
		<rect id="Rectangle_30" x="13.9" y="19" width="10.4" height="1.2"/>
		<rect id="Rectangle_31" x="34.7" y="19" width="2.5" height="1.2"/>
		<rect id="Rectangle_32" x="3.4" y="4.4" width="21.4" height="1.2"/>
		<rect id="Rectangle_33" x="9" y="21.4" width="1.2" height="1.2"/>
		<rect id="Rectangle_34" x="29.8" y="21.4" width="1.2" height="1.2"/>
	</g>
</g>
</svg>
