<?xml version="1.0" encoding="utf-8"?>
<!-- Generator: Adobe Illustrator 23.0.6, SVG Export Plug-In . SVG Version: 6.00 Build 0)  -->
<svg version="1.1" id="Layer_1" xmlns="http://www.w3.org/2000/svg" xmlns:xlink="http://www.w3.org/1999/xlink" x="0px" y="0px"
	 width="34.1px" height="33.1px" viewBox="0 0 34.1 33.1" style="enable-background:new 0 0 34.1 33.1;" xml:space="preserve">
<style type="text/css">
	.st0{clip-path:url(#SVGID_2_);}
	.st1{clip-path:url(#SVGID_4_);}
	.st2{clip-path:url(#SVGID_6_);}
</style>
<g>
	<defs>
		<rect id="SVGID_1_" x="1" y="47.7" width="36.8" height="23.8"/>
	</defs>
	<clipPath id="SVGID_2_">
		<use xlink:href="#SVGID_1_"  style="overflow:visible;"/>
	</clipPath>
	<g id="Group_53" class="st0">
		<path id="Path_977" d="M9.6,64.2c-2,0-3.6,1.7-3.6,3.7c0,2,1.7,3.6,3.7,3.6c2,0,3.6-1.6,3.6-3.7C13.3,65.8,11.6,64.2,9.6,64.2
			 M9.6,70.3c-1.3,0-2.4-1.1-2.4-2.5c0-1.3,1.1-2.4,2.5-2.4c1.3,0,2.4,1.1,2.4,2.4C12.1,69.2,11,70.3,9.6,70.3"/>
		<path id="Path_978" d="M30.4,64.2c-2,0-3.6,1.7-3.6,3.7c0,2,1.7,3.6,3.7,3.6c2,0,3.6-1.6,3.6-3.7C34.1,65.8,32.5,64.2,30.4,64.2
			 M30.4,70.3c-1.3,0-2.4-1.1-2.4-2.5s1.1-2.4,2.5-2.4c1.3,0,2.4,1.1,2.4,2.4C32.9,69.2,31.8,70.3,30.4,70.3"/>
		<path id="Path_979" d="M37.7,60.8l-5.5-8.5c-0.1-0.2-0.3-0.3-0.5-0.3h-6.7c-0.3,0-0.6,0.3-0.6,0.6c0,0,0,0,0,0v15.2
			c0,0.3,0.3,0.6,0.6,0.6c0,0,0,0,0,0h2.5v-1.2h-1.8v-14h5.8l5.2,8.1v5.9h-3.1v1.2h3.7c0.3,0,0.6-0.3,0.6-0.6c0,0,0,0,0,0v-6.7
			C37.8,61,37.8,60.9,37.7,60.8"/>
		<path id="Path_980" d="M28,59.9v-4.3h4.9v-1.2h-5.5c-0.3,0-0.6,0.3-0.6,0.6c0,0,0,0,0,0v5.5c0,0.3,0.3,0.6,0.6,0.6c0,0,0,0,0,0
			h9.2v-1.2H28L28,59.9z"/>
		<path id="Path_981" d="M24.9,47.7H1.6C1.3,47.7,1,48,1,48.3c0,0,0,0,0,0v19.5c0,0.3,0.3,0.6,0.6,0.6c0,0,0,0,0,0h4.9v-1.2H2.3
			V48.9h22.1v18.3H12.7v1.2h12.3c0.3,0,0.6-0.3,0.6-0.6c0,0,0,0,0,0V48.3C25.5,48,25.3,47.7,24.9,47.7
			C24.9,47.7,24.9,47.7,24.9,47.7"/>
		<rect id="Rectangle_29" x="1.6" y="64.8" width="3.7" height="1.2"/>
		<rect id="Rectangle_30" x="13.9" y="64.8" width="10.4" height="1.2"/>
		<rect id="Rectangle_31" x="34.7" y="64.8" width="2.5" height="1.2"/>
		<rect id="Rectangle_32" x="3.5" y="50.2" width="21.4" height="1.2"/>
		<rect id="Rectangle_33" x="9" y="67.2" width="1.2" height="1.2"/>
		<rect id="Rectangle_34" x="29.8" y="67.2" width="1.2" height="1.2"/>
	</g>
</g>
<g>
	<defs>
		<rect id="SVGID_3_" x="0.7" y="1" width="32.9" height="31.6"/>
	</defs>
	<clipPath id="SVGID_4_">
		<use xlink:href="#SVGID_3_"  style="overflow:visible;"/>
	</clipPath>
	<g id="Group_55" class="st1">
		<path id="Path_982" d="M29,20.2c4.6-1.5,4.7-6.9,4.7-7.2c0-0.1,0-0.2-0.1-0.3c-0.1-0.2-3.4-4.5-8-3.1c-1.3,0.4-2.4,1.1-3.5,1.9
			c0.5-1.2,0.7-2.6,0.7-3.9c0-4.8-5.2-6.6-5.4-6.6c-0.1,0-0.2,0-0.4,0c-0.2,0.1-5.4,1.8-5.4,6.7c0,1.3,0.3,2.6,0.7,3.9
			c-1.1-0.8-2.2-1.5-3.5-1.9c-4.6-1.5-7.8,2.9-8,3.1c-0.1,0.1-0.1,0.2-0.1,0.3c0,0.2,0.1,5.7,4.7,7.2c1.3,0.4,2.6,0.6,3.9,0.5
			c-1.1,0.7-2.1,1.7-2.9,2.7c-2.8,3.9,0.3,8.3,0.5,8.5c0.1,0.1,0.2,0.2,0.3,0.2c0.9,0.3,1.8,0.4,2.7,0.4c4,0,6.1-2.4,7.2-6.1
			c1.1,3.8,3.3,6.1,7.2,6.1c0.9,0,1.8-0.1,2.7-0.4c0.1,0,0.2-0.1,0.3-0.2c0.1-0.2,3.3-4.7,0.5-8.5c-0.8-1.1-1.8-2-2.9-2.7
			C26.4,20.8,27.7,20.6,29,20.2 M17.2,2.1c0.8,0.3,4.5,2,4.5,5.5c0,3.2-1.8,6.5-3.8,9c-0.1,0-0.1,0.5-0.1-6.2c0-0.3-0.2-0.6-0.6-0.6
			c-0.3,0-0.6,0.2-0.6,0.6v5.8c-0.7-1-1.4-2-2.3-2.8c-1-1.7-1.6-3.7-1.6-5.7C12.7,4.1,16.3,2.4,17.2,2.1 M5.7,19.1
			c-3.4-1.1-3.8-5-3.9-5.9c0.6-0.7,3.3-3.6,6.6-2.5c3.1,1,5.7,3.7,7.4,6.4c-0.1,0.1,0.4,0.2-6-1.9c-0.3-0.1-0.6,0.1-0.7,0.4
			c-0.1,0.3,0.1,0.6,0.4,0.7l5.5,1.8c-1.2,0.3-2.3,0.8-3.4,1.3C9.7,19.8,7.7,19.7,5.7,19.1 M14.6,29.3c-2.1,2.9-6,2.1-6.8,1.9
			c-0.5-0.8-2.4-4.2-0.4-7.1c1.9-2.6,5.3-4.2,8.4-5c0.1,0.1,0.3-0.3-3.6,5.1c-0.2,0.3-0.1,0.6,0.2,0.8c0.2,0.1,0.5,0.1,0.7-0.1
			l3.4-4.7c0,1.2,0,2.4,0.2,3.6C16.4,25.7,15.7,27.6,14.6,29.3L14.6,29.3z M17.2,18.7c-0.3,0-0.6-0.3-0.6-0.6c0-0.3,0.3-0.6,0.6-0.6
			c0.3,0,0.6,0.3,0.6,0.6C17.7,18.5,17.5,18.7,17.2,18.7C17.2,18.7,17.2,18.7,17.2,18.7 M27,24.1c2.1,2.9,0.1,6.3-0.4,7.1
			c-0.9,0.2-4.8,1-6.8-1.9c-1.9-2.6-2.4-6.3-2.2-9.5c0.1,0-0.2-0.4,3.7,5c0.2,0.3,0.5,0.4,0.8,0.2c0.3-0.2,0.4-0.5,0.2-0.8
			c0,0,0-0.1-0.1-0.1l-3.4-4.7c1.2,0.4,2.3,0.8,3.5,1C24.2,21.3,25.8,22.5,27,24.1 M18.8,18.3c0-0.1-0.4,0.1,5.9-2
			c0.3-0.1,0.4-0.4,0.4-0.7c-0.1-0.3-0.4-0.4-0.7-0.4L18.9,17c0.7-1,1.4-2,2-3c1.4-1.5,3.1-2.6,5-3.3c3.3-1.1,6.1,1.8,6.6,2.5
			c-0.1,0.9-0.5,4.8-3.9,5.9C25.6,20.1,21.8,19.4,18.8,18.3"/>
	</g>
</g>
<g>
	<defs>
		<rect id="SVGID_5_" x="44.3" y="2.9" width="22" height="27.7"/>
	</defs>
	<clipPath id="SVGID_6_">
		<use xlink:href="#SVGID_5_"  style="overflow:visible;"/>
	</clipPath>
	<g id="Group_57" class="st2">
		<path id="Path_983" d="M44.3,3.4v26.7c0,0.3,0.3,0.5,0.5,0.5h20.9c0.3,0,0.5-0.2,0.5-0.5V8.5c0,0,0,0,0,0c0,0,0-0.1,0-0.1
			c0,0,0,0,0,0c0-0.1-0.1-0.1-0.1-0.2L60.6,3c0,0-0.1-0.1-0.2-0.1c0,0,0,0-0.1,0c0,0-0.1,0-0.1,0c0,0,0,0,0,0H44.9
			C44.6,2.9,44.3,3.1,44.3,3.4 M64.4,8h-3.6V4.6L64.4,8z M45.4,3.9h14.3v4.6c0,0.3,0.3,0.5,0.5,0.5h4.9v20.5H45.4L45.4,3.9z"/>
		<rect id="Rectangle_37" x="48.7" y="10.1" width="13.2" height="1"/>
		<rect id="Rectangle_38" x="48.7" y="7" width="4.4" height="1"/>
		<rect id="Rectangle_39" x="48.7" y="13.2" width="8.8" height="1"/>
		<rect id="Rectangle_40" x="58.6" y="13.2" width="3.3" height="1"/>
		<rect id="Rectangle_41" x="48.7" y="16.2" width="13.2" height="1"/>
		<rect id="Rectangle_42" x="48.7" y="22.4" width="13.2" height="1"/>
		<rect id="Rectangle_43" x="53.6" y="19.3" width="8.2" height="1"/>
		<rect id="Rectangle_44" x="48.7" y="19.3" width="3.8" height="1"/>
		<rect id="Rectangle_45" x="48.7" y="25.5" width="2.2" height="1"/>
		<rect id="Rectangle_46" x="52" y="25.5" width="9.9" height="1"/>
	</g>
</g>
</svg>
