<svg id="Lag_1" data-name="Lag 1" xmlns="http://www.w3.org/2000/svg" viewBox="0 0 234.66 236.86"><defs><style>.cls-1{font-size:24px;}.cls-1,.cls-3{fill:#1d1d1b;font-family:Avenir-Light, Avenir;font-weight:300;}.cls-2{fill:none;stroke:#1d1d1b;stroke-miterlimit:10;}.cls-3{font-size:24.14px;}.cls-4{letter-spacing:-0.09em;}.cls-5{letter-spacing:0em;}.cls-6{fill:#010101;}</style></defs><text class="cls-1" transform="matrix(0.99, 0.16, -0.16, 0.99, 120.25, 20.21)">J</text><text class="cls-1" transform="translate(135.76 22.93) rotate(17.9)">e</text><text class="cls-1" transform="translate(152.37 28.84) rotate(25.27)">l</text><text class="cls-1" transform="translate(161.46 33.27) rotate(31.81)">s</text><text class="cls-1" transform="translate(173.63 41.25) rotate(38.44)"> </text><text class="cls-1" transform="translate(181.85 47.87) rotate(45.63)">2</text><text class="cls-1" transform="translate(193.28 60.01) rotate(54.4)">0</text><text class="cls-1" transform="matrix(0.45, 0.89, -0.89, 0.45, 202.73, 73.77)">0</text><text class="cls-1" transform="translate(209.95 88.79) rotate(72.09)">9</text><path class="cls-2" d="M400.12,416.67A112.37,112.37,0,1,1,286.81,301.22" transform="translate(-174.92 -289.6)"/><path class="cls-2" d="M399.27,399.29a113.6,113.6,0,0,1,.85,17.38" transform="translate(-174.92 -289.6)"/><path class="cls-2" d="M398.83,396.23" transform="translate(-174.92 -289.6)"/><text class="cls-3" transform="translate(72.22 146.31)"><tspan class="cls-4">T</tspan><tspan x="11.63" y="0">usin</tspan><tspan class="cls-5" x="54.55" y="0">d</tspan><tspan x="69.33" y="0">fryd</tspan></text><path class="cls-6" d="M241.73,458.33c.67.12.5-5.14.47-5.65a18.49,18.49,0,0,0-1.3-5.28,94,94,0,0,0-5.32-11.8c-2-3.89-4.05-7.7-5.88-11.67-2.08-4.5-3-9-4.06-13.78-.15-.67-1.18-.36-1,.31,1,4.52,1.82,8.79,3.73,13.06q2.32,5.18,5,10.16a89,89,0,0,1,5.86,12.22,25.42,25.42,0,0,1,1.9,6.8c.13,2.07-.26,4.09-.24,6.13a.54.54,0,0,0,.4.51l.17,0c.68.13.94-.91.27-1Z" transform="translate(-174.92 -289.6)"/><path class="cls-6" d="M223.52,411.7c.76,0,6-.39,4-2.2-.77-.7-2.54-.55-3.49-.52a2.9,2.9,0,0,0-2.72,1.31.56.56,0,0,0,.1.65c.74.87,2.44.5,3.41.38s2.42-.05,3-1a.54.54,0,0,0,0-.55c-.6-.85-1.91-.81-2.85-.81s-2.19,0-2.51,1,.89,1.71,1.8,1.87c1.5.25,2.17-.31,3.14-1.37.46-.51-.31-1.25-.78-.74s-.85,1.14-1.68,1.11c-.36,0-1.89-.26-1.13-.7.45-.27,2.81-.18,3.1.23l0-.54c-.23.42-1.91.44-2.26.48s-2,.36-2.43-.11l.1.65c.79-1.28,2.77-.65,4-.64.2,0,.74-.12.31,0-.25.08-.52.13-.77.21a7.38,7.38,0,0,1-2.29.24c-.69,0-.66,1.05,0,1.07Z" transform="translate(-174.92 -289.6)"/><path class="cls-6" d="M224.1,410.05h.13c.7,0,.65-1,0-1.07-2.41-.16-4.83-5.58-5.39-7.57-.82-2.9.12-9,4.66-6.95,4.19,1.94,5.5,11.91,2.68,15-.46.52.31,1.26.77.74,3.45-3.82,1.69-18.15-5.45-17.09-3.62.53-4.53,4.21-4,7.34a18.75,18.75,0,0,0,3,6.67c1,1.46,1.87,2.77,3.7,2.89,0-.35,0-.71,0-1.07h-.14a.54.54,0,0,0,0,1.07Z" transform="translate(-174.92 -289.6)"/><path class="cls-6" d="M227.89,410c.84-4.73,2.57-12.28,8.6-12.67,6.5-.42,3.2,8,.14,10.17-1.16.85-7.06,3.9-8.4,1.87-.38-.57-1.3,0-.92.56,1.72,2.59,7.36.09,9.25-1.08,3.23-2,6.12-6.67,4.33-10.53-1.65-3.57-6.47-2.08-8.85-.17-3.44,2.77-4.46,7.47-5.19,11.59-.12.67.91.94,1,.26Z" transform="translate(-174.92 -289.6)"/><path class="cls-6" d="M222.87,410.08l.12,0-.4-.9c-3.29,2.68-9.43-1.58-11-4.46a7.65,7.65,0,0,1-.95-3.36c.15-2.23,2-3.13,3.91-2.76,2.17.43,2.77,2.45,4,4,.42.54,1.33,0,.91-.56-1.72-2.21-2.8-4.84-6.15-4.5-2.7.27-4,2.14-3.6,4.73a9.88,9.88,0,0,0,5.9,7.49c2.31,1,5.57,2,7.76.2a.54.54,0,0,0-.4-.91h-.13c-.68.08-.66,1.15,0,1.08Z" transform="translate(-174.92 -289.6)"/><path class="cls-6" d="M221.41,410.42c-2.78-2.42-7.45-2.8-11-2.61-3.18.18-4.92,2.78-3.29,5.66a9,9,0,0,0,8.51,4.43c2.89-.32,6.44-2.81,8-5.24.37-.59-.57-1.1-.93-.52a14.13,14.13,0,0,1-4.38,3.74,7.27,7.27,0,0,1-8.07-.59c-1.52-1.1-5.19-5-.16-6.39a9.07,9.07,0,0,1,2.75.05c2.67.15,5.77.42,7.87,2.25.52.45,1.26-.32.74-.78Z" transform="translate(-174.92 -289.6)"/><path class="cls-6" d="M207.3,409.62l.16.05.36-.92c-1.16-.1-1.67-3.68-1.82-4.44-.32-1.59.25-2.75,2.1-2.15a9.56,9.56,0,0,1,1.65,1c.59.36,1.1-.58.52-.94-1-.59-2.11-1.5-3.34-1.33a2.33,2.33,0,0,0-2.2,2.34,13,13,0,0,0,1.17,4.68c.39.93.86,1.84,1.95,1.93a.54.54,0,0,0,.35-.92,1.21,1.21,0,0,0-.93-.36c-.69,0-.66,1,0,1.08Z" transform="translate(-174.92 -289.6)"/><path class="cls-6" d="M213.51,398.09c-.1-2-.06-4.57,1.72-5.92s4.32-.41,5.36,1.52c.33.61,1.25.05.92-.56a4.77,4.77,0,0,0-6.16-2.3c-2.7,1.29-3,4.68-2.92,7.28,0,.69,1.11.67,1.08,0Z" transform="translate(-174.92 -289.6)"/><path class="cls-6" d="M226.94,394.91a3,3,0,0,1,4.34-2.55,3.89,3.89,0,0,1,2,2.29c.07.21.31,2.06.37,2.05-.68.11-.37,1.13.3,1l.17,0a.52.52,0,0,0,.37-.39c.49-2.54-.83-5.54-3.5-6.19a4.08,4.08,0,0,0-5.15,3.82c-.07.68,1,.65,1.07,0Z" transform="translate(-174.92 -289.6)"/><path class="cls-6" d="M222,393.18c0-1.25.29-3.89,2.11-3.85,1.46,0,2.5,2.1,3,3.19.3.62,1.21.05.91-.56-.76-1.58-2.31-4.08-4.43-3.64s-2.75,3.05-2.68,4.89a.54.54,0,0,0,1.07,0Z" transform="translate(-174.92 -289.6)"/><path class="cls-6" d="M221.52,398.93c.16,2.32,1.79,4.41,2.49,6.59.46,1.44.92,4.2,2.42,5,.3.16.56-.31.26-.47-.79-.42-1.23-1.84-1.5-2.58-.36-1-.6-2-1-3-.68-1.81-2-3.58-2.15-5.54,0-.34-.56-.33-.54,0Z" transform="translate(-174.92 -289.6)"/><path class="cls-6" d="M226.29,408.78c.24.5.73.36,1.16.17a16.54,16.54,0,0,0,2.69-1.67c2.54-1.83,4-4.75,6-7.07.22-.26-.17-.63-.39-.37-1.55,1.8-2.79,3.82-4.41,5.58a12.24,12.24,0,0,1-2.73,2.18c-.24.14-1.71,1.22-1.86.9s-.61,0-.46.28Z" transform="translate(-174.92 -289.6)"/><path class="cls-6" d="M221.37,410l0,.13.45-.2a12.79,12.79,0,0,1-2.5-2.26c-.53-.68-1-1.39-1.62-2-1.28-1.38-2.88-2.43-3.39-4.35-.09-.33-.61-.18-.52.16.47,1.75,1.77,2.84,3,4.05a35,35,0,0,1,2.35,2.81,11.79,11.79,0,0,0,2.29,2c.16.12.49.06.45-.2l0-.12c0-.34-.58-.33-.53,0Z" transform="translate(-174.92 -289.6)"/><path class="cls-6" d="M212,412a3.42,3.42,0,0,0,2.3,1.06,7.48,7.48,0,0,0,3.67,0,22.18,22.18,0,0,0,4.39-1.67,12.31,12.31,0,0,0,1.66-1.11,9.16,9.16,0,0,1,1.93-1.37c.33-.11.18-.63-.15-.52a10.17,10.17,0,0,0-2.4,1.7,14.1,14.1,0,0,1-3.42,1.73,9.25,9.25,0,0,1-4.43.92c-.9-.12-2.51-.28-3.09-1.05-.2-.27-.66,0-.46.28Z" transform="translate(-174.92 -289.6)"/><path class="cls-6" d="M237.86,444.51c-5.64-.05-9.43-4.16-12.6-8.28a40.51,40.51,0,0,1-4.35-7.49c-.93-2-2.78-4.47-3.09-6.61l-.91.49c3.69,3.74,8.64,6.12,12.48,9.72a29.26,29.26,0,0,1,5,6.36c1.12,1.82,2.89,4.07,3.29,6.18.13.67,1.18.42,1.05-.25-.37-1.91-1.71-3.77-2.73-5.41a34.76,34.76,0,0,0-4.56-6.38c-4.12-4.21-9.64-6.8-13.74-11a.54.54,0,0,0-.91.5c.34,2.4,2.35,5.13,3.4,7.32a40.62,40.62,0,0,0,4.93,8c3.25,4.06,7.14,7.79,12.72,7.84a.54.54,0,0,0,0-1.07Z" transform="translate(-174.92 -289.6)"/><path class="cls-6" d="M238.66,444.32c-2.07.16-5.18-2.84-6.55-4.09s-2.82-2.6-4.1-4c-2.91-3.2-6.5-6.5-8.69-10.26-.35-.6-1.29-.08-.94.51a37.12,37.12,0,0,0,4.62,5.71c1.78,2,3.45,4.16,5.38,6a54.16,54.16,0,0,0,5.08,4.49c1.36,1,3.33,2.84,5.16,2.7.68-.05.73-1.12,0-1.07Z" transform="translate(-174.92 -289.6)"/></svg>