<?xml version="1.0" encoding="utf-8"?>
<!-- Generator: Adobe Illustrator 23.0.6, SVG Export Plug-In . SVG Version: 6.00 Build 0)  -->
<svg version="1.1" id="Layer_1" xmlns="http://www.w3.org/2000/svg" xmlns:xlink="http://www.w3.org/1999/xlink" x="0px" y="0px"
	 width="102px" height="99.9px" viewBox="0 0 102 99.9" style="enable-background:new 0 0 102 99.9;" xml:space="preserve">
<style type="text/css">
	.st0{clip-path:url(#SVGID_2_);}
	.st1{clip-path:url(#SVGID_4_);}
	.st2{clip-path:url(#SVGID_6_);}
</style>
<g>
	<g>
		<defs>
			<rect id="SVGID_1_" x="152.6" y="17.4" width="104.4" height="67.5"/>
		</defs>
		<clipPath id="SVGID_2_">
			<use xlink:href="#SVGID_1_"  style="overflow:visible;"/>
		</clipPath>
		<g id="Group_53" class="st0">
			<path id="Path_977" d="M177,64.2c-5.7,0-10.2,4.8-10.2,10.5c0,5.7,4.8,10.2,10.5,10.2c5.7,0,10.2-4.5,10.2-10.5
				C187.2,68.8,182.6,64.2,177,64.2 M177,81.6c-3.7,0-6.8-3.1-6.8-7.1c0-3.7,3.1-6.8,7.1-6.8c3.7,0,6.8,3.1,6.8,6.8
				C183.8,78.4,180.7,81.6,177,81.6"/>
			<path id="Path_978" d="M236,64.2c-5.7,0-10.2,4.8-10.2,10.5c0,5.7,4.8,10.2,10.5,10.2s10.2-4.5,10.2-10.5
				C246.5,68.8,241.7,64.2,236,64.2 M236,81.6c-3.7,0-6.8-3.1-6.8-7.1c0-4,3.1-6.8,7.1-6.8c3.7,0,6.8,3.1,6.8,6.8
				C242.8,78.4,239.7,81.6,236,81.6"/>
			<path id="Path_979" d="M256.4,54.6l-15.6-24.1c-0.3-0.6-0.9-0.9-1.4-0.9h-19c-0.9,0-1.7,0.9-1.7,1.7l0,0v43.1
				c0,0.9,0.9,1.7,1.7,1.7l0,0h7.1v-3.4h-5.4V33h16.5l14.8,23v16.7h-8.5v3.4h10.5c0.9,0,1.7-0.9,1.7-1.7l0,0v-19
				C256.7,55.2,256.7,54.9,256.4,54.6"/>
			<path id="Path_980" d="M228.9,52V39.8h13.9v-3.4h-15.6c-0.9,0-1.7,0.9-1.7,1.7l0,0v15.6c0,0.9,0.9,1.7,1.7,1.7l0,0h26.1V52
				L228.9,52L228.9,52z"/>
			<path id="Path_981" d="M220.4,17.4h-66.1c-0.9,0-1.7,0.9-1.7,1.7l0,0v55.3c0,0.9,0.9,1.7,1.7,1.7l0,0h13.9v-3.4H156V20.8h62.7
				v51.9h-32.9v3.4h34.9c0.9,0,1.7-0.9,1.7-1.7l0,0V19.1C222.1,18.3,221.2,17.4,220.4,17.4L220.4,17.4"/>
			<rect id="Rectangle_29" x="154.3" y="65.9" width="10.5" height="3.4"/>
			<rect id="Rectangle_30" x="188.9" y="65.9" width="29.5" height="3.4"/>
			<rect id="Rectangle_31" x="248.2" y="65.9" width="7.1" height="3.4"/>
			<rect id="Rectangle_32" x="159.4" y="24.2" width="60.7" height="3.4"/>
			<rect id="Rectangle_33" x="175" y="72.8" width="3.4" height="3.4"/>
			<rect id="Rectangle_34" x="234.3" y="72.8" width="3.4" height="3.4"/>
		</g>
	</g>
</g>
<g>
	<g>
		<defs>
			<rect id="SVGID_3_" x="1.6" y="2.2" width="98.5" height="94.6"/>
		</defs>
		<clipPath id="SVGID_4_">
			<use xlink:href="#SVGID_3_"  style="overflow:visible;"/>
		</clipPath>
		<g id="Group_55" class="st1">
			<path id="Path_982" d="M86.1,60c13.8-4.5,14.1-20.7,14.1-21.6c0-0.3,0-0.6-0.3-0.9c-0.3-0.6-10.2-13.5-24-9.3
				c-3.9,1.2-7.2,3.3-10.5,5.7c1.5-3.6,2.1-7.8,2.1-11.7C67.5,7.9,52,2.5,51.4,2.5c-0.3,0-0.6,0-1.2,0C49.6,2.8,34,7.9,34,22.5
				c0,3.9,0.9,7.8,2.1,11.7c-3.3-2.4-6.6-4.5-10.5-5.7c-13.8-4.5-23.4,8.7-24,9.3c-0.3,0.3-0.3,0.6-0.3,0.9
				c0,0.6,0.3,17.1,14.1,21.6c3.9,1.2,7.8,1.8,11.7,1.5c-3.3,2.1-6.3,5.1-8.7,8.1c-8.4,11.7,0.9,24.9,1.5,25.5
				c0.3,0.3,0.6,0.6,0.9,0.6c2.7,0.9,5.4,1.2,8.1,1.2c12,0,18.3-7.2,21.6-18.3c3.3,11.4,9.9,18.3,21.6,18.3c2.7,0,5.4-0.3,8.1-1.2
				c0.3,0,0.6-0.3,0.9-0.6c0.3-0.6,9.9-14.1,1.5-25.5c-2.4-3.3-5.4-6-8.7-8.1C78.3,61.5,82.2,61.2,86.1,60 M50.8,5.8
				c2.4,0.9,13.5,6,13.5,16.5c0,9.6-5.4,19.5-11.4,27c-0.3,0-0.3,1.5-0.3-18.6c0-0.9-0.6-1.8-1.8-1.8c-1.2,0-1.8,0.6-1.8,1.8V48
				c-2.1-3-4.2-6-6.9-8.4c-3-5.1-4.8-11.1-4.8-17.1C37.6,11.8,48.4,6.7,50.8,5.8 M16.6,56.7C6.4,53.4,5.2,41.7,4.9,39
				c1.8-2.1,9.9-10.8,19.8-7.5c9.3,3,17.1,11.1,22.2,19.2c-0.3,0.3,1.2,0.6-18-5.7c-0.9-0.3-1.8,0.3-2.1,1.2s0.3,1.8,1.2,2.1
				l16.5,5.4c-3.6,0.9-6.9,2.4-10.2,3.9C28.6,58.8,22.3,58.5,16.6,56.7 M43,87.2c-6.3,8.7-18,6.3-20.4,5.7
				c-1.5-2.4-7.2-12.6-1.2-21.3c5.7-7.8,15.9-12.6,25.2-15c0.3,0.3,0.9-0.9-10.8,15.3c-0.6,0.9-0.3,1.8,0.6,2.4
				c0.6,0.3,1.5,0.3,2.1-0.3L48.7,60c0,3.6,0,7.2,0.6,10.8C48.7,76.5,46.6,82.1,43,87.2L43,87.2z M50.8,55.5c-0.9,0-1.8-0.9-1.8-1.8
				s0.9-1.8,1.8-1.8c0.9,0,1.8,0.9,1.8,1.8C52.6,54.9,51.7,55.5,50.8,55.5L50.8,55.5 M80.4,71.7c6.3,8.7,0.3,18.9-1.2,21.3
				c-2.7,0.6-14.4,3-20.4-5.7c-5.7-7.8-7.2-18.9-6.6-28.5c0.3,0-0.6-1.2,11.1,15c0.6,0.9,1.5,1.2,2.4,0.6c0.9-0.6,1.2-1.5,0.6-2.4
				c0,0,0-0.3-0.3-0.3L55.8,57.6c3.6,1.2,6.9,2.4,10.5,3C71.7,63,76.5,66.9,80.4,71.7 M55.8,54.3c0-0.3-1.2,0.3,17.7-6
				c0.9-0.3,1.2-1.2,1.2-2.1c-0.3-0.9-1.2-1.2-2.1-1.2l-16.5,5.4c2.1-3,4.2-6,6-9c4.2-4.5,9.3-7.8,15-9.9c9.9-3.3,18.3,5.4,19.8,7.5
				c-0.3,2.7-1.5,14.4-11.7,17.7C75.9,59.7,64.8,57.6,55.8,54.3"/>
		</g>
	</g>
</g>
<g>
	<g>
		<defs>
			<rect id="SVGID_5_" x="315.4" y="-22.1" width="75.5" height="95.1"/>
		</defs>
		<clipPath id="SVGID_6_">
			<use xlink:href="#SVGID_5_"  style="overflow:visible;"/>
		</clipPath>
		<g id="Group_57" class="st2">
			<path id="Path_983" d="M315.4-20.4v91.7c0,1,1,1.7,1.7,1.7h71.8c1,0,1.7-0.7,1.7-1.7V-2.6l0,0v-0.3l0,0c0-0.3-0.3-0.3-0.3-0.3
				l-18.9-17.5c0,0-0.3-0.3-0.7-0.3c0,0,0,0-0.3,0h-0.3l0,0h-52.9C316-22.1,315.4-21.4,315.4-20.4 M384.4-4.6H372v-11.7L384.4-4.6z
				 M319.1-18.7h49.1v15.8c0,1,1,1.7,1.7,1.7h16.8v70.4h-68L319.1-18.7z"/>
			<rect id="Rectangle_37" x="330.5" y="2.6" width="45.3" height="3.4"/>
			<rect id="Rectangle_38" x="330.5" y="-8" width="15.1" height="3.4"/>
			<rect id="Rectangle_39" x="330.5" y="12.9" width="30.2" height="3.4"/>
			<rect id="Rectangle_40" x="364.1" y="12.9" width="11.3" height="3.4"/>
			<rect id="Rectangle_41" x="330.5" y="23.5" width="45.3" height="3.4"/>
			<rect id="Rectangle_42" x="330.5" y="44.8" width="45.3" height="3.4"/>
			<rect id="Rectangle_43" x="347.3" y="34.2" width="28.2" height="3.4"/>
			<rect id="Rectangle_44" x="330.5" y="34.2" width="13" height="3.4"/>
			<rect id="Rectangle_45" x="330.5" y="55.5" width="7.6" height="3.4"/>
			<rect id="Rectangle_46" x="341.8" y="55.5" width="34" height="3.4"/>
		</g>
	</g>
</g>
</svg>
