<?xml version="1.0" encoding="utf-8"?>
<!-- Generator: Adobe Illustrator 23.0.6, SVG Export Plug-In . SVG Version: 6.00 Build 0)  -->
<svg version="1.1" id="Layer_1" xmlns="http://www.w3.org/2000/svg" xmlns:xlink="http://www.w3.org/1999/xlink" x="0px" y="0px"
	 width="21.1px" height="25px" viewBox="0 0 21.1 25" style="enable-background:new 0 0 21.1 25;" xml:space="preserve">
<style type="text/css">
	.st0{clip-path:url(#SVGID_2_);}
	.st1{clip-path:url(#SVGID_4_);}
	.st2{clip-path:url(#SVGID_6_);}
	.st3{clip-path:url(#SVGID_8_);}
</style>
<g>
	<defs>
		<rect id="SVGID_1_" x="-81.5" y="51.8" width="36.8" height="23.8"/>
	</defs>
	<clipPath id="SVGID_2_">
		<use xlink:href="#SVGID_1_"  style="overflow:visible;"/>
	</clipPath>
	<g id="Group_53" class="st0">
		<path id="Path_977" d="M-73,68.2c-2,0-3.6,1.7-3.6,3.7c0,2,1.7,3.6,3.7,3.6c2,0,3.6-1.6,3.6-3.7C-69.3,69.9-70.9,68.2-73,68.2
			 M-73,74.3c-1.3,0-2.4-1.1-2.4-2.5c0-1.3,1.1-2.4,2.5-2.4c1.3,0,2.4,1.1,2.4,2.4C-70.5,73.2-71.6,74.3-73,74.3"/>
		<path id="Path_978" d="M-52.1,68.2c-2,0-3.6,1.7-3.6,3.7c0,2,1.7,3.6,3.7,3.6c2,0,3.6-1.6,3.6-3.7C-48.5,69.9-50.1,68.2-52.1,68.2
			 M-52.1,74.3c-1.3,0-2.4-1.1-2.4-2.5s1.1-2.4,2.5-2.4c1.3,0,2.4,1.1,2.4,2.4C-49.7,73.2-50.8,74.3-52.1,74.3"/>
		<path id="Path_979" d="M-44.9,64.9l-5.5-8.5c-0.1-0.2-0.3-0.3-0.5-0.3h-6.7c-0.3,0-0.6,0.3-0.6,0.6c0,0,0,0,0,0v15.2
			c0,0.3,0.3,0.6,0.6,0.6c0,0,0,0,0,0h2.5v-1.2H-57v-14h5.8l5.2,8.1v5.9h-3.1v1.2h3.7c0.3,0,0.6-0.3,0.6-0.6c0,0,0,0,0,0v-6.7
			C-44.8,65.1-44.8,65-44.9,64.9"/>
		<path id="Path_980" d="M-54.6,64v-4.3h4.9v-1.2h-5.5c-0.3,0-0.6,0.3-0.6,0.6c0,0,0,0,0,0v5.5c0,0.3,0.3,0.6,0.6,0.6c0,0,0,0,0,0
			h9.2V64H-54.6L-54.6,64z"/>
		<path id="Path_981" d="M-57.7,51.8h-23.3c-0.3,0-0.6,0.3-0.6,0.6c0,0,0,0,0,0v19.5c0,0.3,0.3,0.6,0.6,0.6c0,0,0,0,0,0h4.9v-1.2
			h-4.3V53h22.1v18.3h-11.6v1.2h12.3c0.3,0,0.6-0.3,0.6-0.6c0,0,0,0,0,0V52.4C-57,52-57.3,51.8-57.7,51.8
			C-57.7,51.8-57.7,51.8-57.7,51.8"/>
		<rect id="Rectangle_29" x="-80.9" y="68.8" width="3.7" height="1.2"/>
		<rect id="Rectangle_30" x="-68.7" y="68.8" width="10.4" height="1.2"/>
		<rect id="Rectangle_31" x="-47.9" y="68.8" width="2.5" height="1.2"/>
		<rect id="Rectangle_32" x="-79.1" y="54.2" width="21.4" height="1.2"/>
		<rect id="Rectangle_33" x="-73.6" y="71.3" width="1.2" height="1.2"/>
		<rect id="Rectangle_34" x="-52.8" y="71.3" width="1.2" height="1.2"/>
	</g>
</g>
<g>
	<defs>
		<rect id="SVGID_3_" x="-81.8" y="5" width="32.9" height="31.6"/>
	</defs>
	<clipPath id="SVGID_4_">
		<use xlink:href="#SVGID_3_"  style="overflow:visible;"/>
	</clipPath>
	<g id="Group_55" class="st1">
		<path id="Path_982" d="M-53.6,24.2c4.6-1.5,4.7-6.9,4.7-7.2c0-0.1,0-0.2-0.1-0.3c-0.1-0.2-3.4-4.5-8-3.1c-1.3,0.4-2.4,1.1-3.5,1.9
			c0.5-1.2,0.7-2.6,0.7-3.9c0-4.8-5.2-6.6-5.4-6.6c-0.1,0-0.2,0-0.4,0c-0.2,0.1-5.4,1.8-5.4,6.7c0,1.3,0.3,2.6,0.7,3.9
			c-1.1-0.8-2.2-1.5-3.5-1.9c-4.6-1.5-7.8,2.9-8,3.1c-0.1,0.1-0.1,0.2-0.1,0.3c0,0.2,0.1,5.7,4.7,7.2c1.3,0.4,2.6,0.6,3.9,0.5
			c-1.1,0.7-2.1,1.7-2.9,2.7c-2.8,3.9,0.3,8.3,0.5,8.5c0.1,0.1,0.2,0.2,0.3,0.2c0.9,0.3,1.8,0.4,2.7,0.4c4,0,6.1-2.4,7.2-6.1
			c1.1,3.8,3.3,6.1,7.2,6.1c0.9,0,1.8-0.1,2.7-0.4c0.1,0,0.2-0.1,0.3-0.2c0.1-0.2,3.3-4.7,0.5-8.5c-0.8-1.1-1.8-2-2.9-2.7
			C-56.2,24.8-54.9,24.6-53.6,24.2 M-65.4,6.2c0.8,0.3,4.5,2,4.5,5.5c0,3.2-1.8,6.5-3.8,9c-0.1,0-0.1,0.5-0.1-6.2
			c0-0.3-0.2-0.6-0.6-0.6c-0.3,0-0.6,0.2-0.6,0.6v5.8c-0.7-1-1.4-2-2.3-2.8c-1-1.7-1.6-3.7-1.6-5.7C-69.9,8.1-66.2,6.5-65.4,6.2
			 M-76.8,23.2c-3.4-1.1-3.8-5-3.9-5.9c0.6-0.7,3.3-3.6,6.6-2.5c3.1,1,5.7,3.7,7.4,6.4c-0.1,0.1,0.4,0.2-6-1.9
			c-0.3-0.1-0.6,0.1-0.7,0.4c-0.1,0.3,0.1,0.6,0.4,0.7l5.5,1.8c-1.2,0.3-2.3,0.8-3.4,1.3C-72.9,23.8-74.9,23.7-76.8,23.2 M-68,33.4
			c-2.1,2.9-6,2.1-6.8,1.9c-0.5-0.8-2.4-4.2-0.4-7.1c1.9-2.6,5.3-4.2,8.4-5c0.1,0.1,0.3-0.3-3.6,5.1c-0.2,0.3-0.1,0.6,0.2,0.8
			c0.2,0.1,0.5,0.1,0.7-0.1l3.4-4.7c0,1.2,0,2.4,0.2,3.6C-66.2,29.8-66.9,31.7-68,33.4L-68,33.4z M-65.4,22.8
			c-0.3,0-0.6-0.3-0.6-0.6c0-0.3,0.3-0.6,0.6-0.6c0.3,0,0.6,0.3,0.6,0.6C-64.8,22.5-65.1,22.8-65.4,22.8
			C-65.4,22.8-65.4,22.8-65.4,22.8 M-55.6,28.1c2.1,2.9,0.1,6.3-0.4,7.1c-0.9,0.2-4.8,1-6.8-1.9c-1.9-2.6-2.4-6.3-2.2-9.5
			c0.1,0-0.2-0.4,3.7,5c0.2,0.3,0.5,0.4,0.8,0.2c0.3-0.2,0.4-0.5,0.2-0.8c0,0,0-0.1-0.1-0.1l-3.4-4.7c1.2,0.4,2.3,0.8,3.5,1
			C-58.4,25.3-56.8,26.6-55.6,28.1 M-63.7,22.3c0-0.1-0.4,0.1,5.9-2c0.3-0.1,0.4-0.4,0.4-0.7c-0.1-0.3-0.4-0.4-0.7-0.4l-5.5,1.8
			c0.7-1,1.4-2,2-3c1.4-1.5,3.1-2.6,5-3.3c3.3-1.1,6.1,1.8,6.6,2.5c-0.1,0.9-0.5,4.8-3.9,5.9C-57,24.2-60.7,23.5-63.7,22.3"/>
	</g>
</g>
<g>
	<defs>
		<rect id="SVGID_5_" x="-38.3" y="6.9" width="22" height="27.7"/>
	</defs>
	<clipPath id="SVGID_6_">
		<use xlink:href="#SVGID_5_"  style="overflow:visible;"/>
	</clipPath>
	<g id="Group_57" class="st2">
		<path id="Path_983" d="M-38.3,7.5v26.7c0,0.3,0.3,0.5,0.5,0.5h20.9c0.3,0,0.5-0.2,0.5-0.5V12.6c0,0,0,0,0,0c0,0,0-0.1,0-0.1
			c0,0,0,0,0,0c0-0.1-0.1-0.1-0.1-0.2L-22,7.1c0,0-0.1-0.1-0.2-0.1c0,0,0,0-0.1,0c0,0-0.1,0-0.1,0c0,0,0,0,0,0h-15.4
			C-38,6.9-38.3,7.2-38.3,7.5 M-18.2,12.1h-3.6V8.7L-18.2,12.1z M-37.2,8h14.3v4.6c0,0.3,0.3,0.5,0.5,0.5h4.9v20.5h-19.8L-37.2,8z"
			/>
		<rect id="Rectangle_37" x="-33.9" y="14.1" width="13.2" height="1"/>
		<rect id="Rectangle_38" x="-33.9" y="11" width="4.4" height="1"/>
		<rect id="Rectangle_39" x="-33.9" y="17.2" width="8.8" height="1"/>
		<rect id="Rectangle_40" x="-24" y="17.2" width="3.3" height="1"/>
		<rect id="Rectangle_41" x="-33.9" y="20.3" width="13.2" height="1"/>
		<rect id="Rectangle_42" x="-33.9" y="26.4" width="13.2" height="1"/>
		<rect id="Rectangle_43" x="-28.9" y="23.4" width="8.2" height="1"/>
		<rect id="Rectangle_44" x="-33.9" y="23.4" width="3.8" height="1"/>
		<rect id="Rectangle_45" x="-33.9" y="29.5" width="2.2" height="1"/>
		<rect id="Rectangle_46" x="-30.6" y="29.5" width="9.9" height="1"/>
	</g>
</g>
<g>
	<defs>
		<rect id="SVGID_7_" x="1" y="0.8" width="19" height="22.8"/>
	</defs>
	<clipPath id="SVGID_8_">
		<use xlink:href="#SVGID_7_"  style="overflow:visible;"/>
	</clipPath>
	<g id="Group_62" class="st3">
		<path id="Path_984" d="M10.4,11.8c1.5,0,2.9-0.6,3.9-1.6c1-1,1.6-2.4,1.6-3.9c0-1.5-0.6-2.9-1.6-3.9c-2.1-2.1-5.6-2.1-7.8,0
			c0,0,0,0,0,0c-1,1-1.6,2.4-1.6,3.9c0,1.5,0.6,2.9,1.6,3.9C7.5,11.2,8.9,11.8,10.4,11.8"/>
		<path id="Path_985" d="M20,18.4c0-0.5-0.1-1-0.2-1.4c-0.1-0.5-0.2-1-0.4-1.4c-0.2-0.5-0.4-0.9-0.6-1.3c-0.2-0.4-0.5-0.8-0.9-1.2
			c-0.4-0.4-0.8-0.6-1.3-0.8c-0.5-0.2-1.1-0.3-1.6-0.3c-0.3,0-0.6,0.2-0.9,0.4c-0.3,0.2-0.6,0.4-0.9,0.6c-0.4,0.2-0.8,0.4-1.2,0.5
			c-1,0.3-2,0.3-2.9,0c-0.4-0.1-0.8-0.3-1.2-0.5c-0.3-0.2-0.7-0.4-0.9-0.6C6.7,12,6.4,11.9,6,11.8c-0.6,0-1.1,0.1-1.6,0.3
			c-0.5,0.2-0.9,0.5-1.3,0.8c-0.4,0.3-0.7,0.7-0.9,1.2C2,14.5,1.8,15,1.6,15.5c-0.1,0.5-0.3,1-0.4,1.4c-0.1,0.5-0.1,1-0.2,1.4
			c0,0.4,0,0.9,0,1.3c0,1.1,0.4,2.1,1.1,2.9c0.8,0.7,1.8,1.1,2.9,1.1h11c1.1,0,2.1-0.3,2.9-1.1c0.8-0.8,1.2-1.8,1.1-2.9
			C20,19.2,20,18.8,20,18.4"/>
	</g>
</g>
</svg>
