<?xml version="1.0" encoding="utf-8"?>
<!-- Generator: Adobe Illustrator 23.0.6, SVG Export Plug-In . SVG Version: 6.00 Build 0)  -->
<svg version="1.1" id="Layer_1" xmlns="http://www.w3.org/2000/svg" xmlns:xlink="http://www.w3.org/1999/xlink" x="0px" y="0px"
	 width="183.3px" height="232.9px" viewBox="0 0 183.3 232.9" style="enable-background:new 0 0 183.3 232.9;" xml:space="preserve"
	>
<style type="text/css">
	.st0{clip-path:url(#SVGID_2_);}
	.st1{fill:none;stroke:#000000;stroke-miterlimit:10;}
</style>
<g>
	<defs>
		<rect id="SVGID_1_" x="3.6" y="6" width="175.5" height="222.4"/>
	</defs>
	<clipPath id="SVGID_2_">
		<use xlink:href="#SVGID_1_"  style="overflow:visible;"/>
	</clipPath>
	<g id="Group_85" class="st0">
		<path id="Path_987" d="M4,65.1c1.9-1.6,3.6-3.3,5.1-5.2c1.5-1.8,3.5-3.1,5.7-3.7c1.5-0.2,3.1-0.1,4.6,0.3c0.3,0.1,0.4-0.4,0.1-0.4
			c-1.4-0.3-2.8-0.5-4.2-0.4c-1.1,0.2-2.3,0.5-3.2,1.2c-2,1.4-3.8,3.1-5.3,5c-0.9,1.1-2,2.1-3.1,3C3.5,64.9,3.8,65.3,4,65.1"/>
		<path id="Path_988" d="M5.6,64.7c1.8-0.3,3.5-0.7,5.3-1.2c1.9-0.4,3.8-0.6,5.7-0.4c1.1,0.1,2.2,0.2,3.3,0.3c0.3,0,0.3-0.4,0-0.4
			c-1.9-0.2-3.8-0.3-5.7-0.3c-0.9,0-1.9,0.1-2.8,0.3c-0.9,0.2-1.8,0.4-2.6,0.7c-1,0.3-2,0.5-3.1,0.6C5.3,64.3,5.3,64.8,5.6,64.7"/>
		<path id="Path_989" d="M110.5,131.4c-0.1,3.8,0,8,2.7,10.9c2.4,2.6,6.1,3.5,9.3,4.5c1.7,0.5,3.4,1.2,4.9,2c1.6,0.8,3,1.8,4.4,3
			c2.7,2.3,4.9,5.2,6.5,8.4c1.6,3.2,2.5,6.7,2.6,10.2c0,0.4,0,0.9,0,1.3c0,0.1,0.1,0.2,0.2,0.2c0.1,0,0.2-0.1,0.2-0.2
			c0.1-3.5-0.6-7-2-10.3c-1.4-3.3-3.4-6.2-5.9-8.7c-2.5-2.5-5.5-4.4-8.8-5.6c-3.3-1.2-7-1.8-9.9-3.9c-1.5-1.1-2.6-2.6-3.2-4.4
			c-0.6-1.9-0.8-3.9-0.7-5.9c0-0.5,0-1,0-1.5c0-0.1-0.1-0.2-0.2-0.2C110.6,131.2,110.5,131.3,110.5,131.4"/>
		<path id="Path_990" d="M141.3,170.7c1.5,9.6,1.8,19.3,0.9,28.9c-0.4,4.3-1,8.9-3.2,12.7c-2.1,3.6-5.7,6.3-9.2,8.5
			c-14.7,9.3-33.4,9.3-48.1,0c-3.7-2.2-6.9-5.2-9.3-8.7c-2.1-3.6-3.5-7.5-3.9-11.7c-0.1-1-0.2-2-0.2-2.9c0-0.3-0.5-0.3-0.4,0
			c0.1,4.2,1,8.2,2.7,12c0.8,1.9,1.9,3.6,3.2,5.2c1.4,1.7,3,3.2,4.8,4.5c3.5,2.6,7.3,4.7,11.4,6.2c4,1.5,8.3,2.4,12.6,2.7
			c4.3,0.3,8.6,0,12.8-0.9c4.2-0.9,8.2-2.4,12-4.4c1.9-1,3.7-2.2,5.5-3.4c1.7-1.2,3.3-2.6,4.7-4.2c1.4-1.6,2.5-3.4,3.2-5.4
			c0.7-2.1,1.2-4.2,1.5-6.4c0.7-4.8,1-9.7,1-14.5c0-4.9-0.3-9.8-0.9-14.7c-0.2-1.2-0.3-2.3-0.5-3.5
			C141.7,170.3,141.2,170.4,141.3,170.7"/>
		<path id="Path_991" d="M97.9,131.7c0.1,2.3-0.2,4.6-0.8,6.8c-0.3,1.1-0.9,2.1-1.7,2.9c-0.9,0.9-2,1.7-3.1,2.3
			c-4.3,2.7-8.9,5-12.8,8.3c-5.7,4.6-9.6,11.1-11,18.3c-0.5,2.7-0.8,5.5-0.8,8.2c-0.1,2.8-0.1,5.7-0.1,8.5c0,2.9-0.1,5.8-0.1,8.7
			c0,0.7,0,1.5,0,2.2c0,0.1,0.1,0.2,0.2,0.2c0.1,0,0.2-0.1,0.2-0.2c0.1-5.8,0.1-11.6,0.2-17.4c0.1-5.4,0.5-10.8,2.5-15.8
			c1.8-4.5,4.7-8.5,8.4-11.7c3.9-3.4,8.4-5.8,12.8-8.4c1.1-0.6,2.1-1.3,3.1-2.1c0.9-0.7,1.6-1.6,2.1-2.6c0.9-2,1.4-4.2,1.3-6.5
			c0-0.6,0-1.1,0-1.7c0-0.1-0.1-0.2-0.2-0.2C98,131.5,97.9,131.6,97.9,131.7"/>
		<path id="Path_992" d="M98.2,131.9c2-0.5,4.1-0.7,6.1-0.6c2.1-0.1,4.2-0.1,6.3,0.2c0.3,0.1,0.4-0.4,0.1-0.4
			c-2.1-0.3-4.3-0.4-6.4-0.2c-2.1-0.1-4.2,0.1-6.2,0.6C97.9,131.5,98,132,98.2,131.9"/>
		<path id="Path_993" d="M69.1,171.5c9.4,1,18.9,1.3,28.3,1.4c4.7,0,9.4,0,14.1-0.1l7.2-0.1c2.3,0,4.7,0,7-0.2
			c5.2-0.3,10.4-1.3,15.6-0.4c0.3,0,0.4-0.4,0.1-0.4c-4.6-0.8-9.3-0.1-13.9,0.3c-2.3,0.2-4.7,0.2-7,0.3l-7.2,0.1
			c-9.5,0.1-19,0.2-28.4-0.2c-5.3-0.2-10.6-0.5-15.9-1.1C68.8,171.1,68.8,171.5,69.1,171.5"/>
		<path id="Path_994" class="st1" d="M68.2,178.6C78.5,178.9,87,179,93,179c8.3,0.1,15,0,27.9-0.1c9-0.1,16.5-0.2,21.6-0.2"/>
		<path id="Path_995" d="M67.9,181.5l19.3,0.4c6.2,0.1,12.5,0.3,18.7,0.3c3.4,0,6.8,0,10.2-0.1c4.4-0.1,8.9-0.1,13.3-0.1
			c3.8,0,7.6-0.2,11.4-0.6c0.5,0,0.9-0.1,1.4-0.1c0.3,0,0.3-0.5,0-0.4c-3.9,0.4-7.9,0.6-11.9,0.7c-4.2,0.1-8.5,0-12.7,0.1
			c-3.4,0-6.8,0.1-10.2,0.1c-5.9,0-11.8-0.2-17.7-0.3l-19.3-0.4l-2.4,0c-0.1,0-0.2,0.1-0.2,0.2C67.7,181.4,67.8,181.5,67.9,181.5"/>
		<path id="Path_996" d="M67.9,183.9c5.4,0.5,10.8,0.9,16.1,1.1c5.4,0.2,10.8,0.3,16.2,0.3c5.4,0,10.8-0.1,16.3-0.1
			c4.3-0.1,8.6-0.2,12.9-0.3c3.8-0.1,7.7-0.2,11.5-0.3l1.9-0.1c0.3,0,0.3-0.5,0-0.4c-4,0.1-8.1,0.2-12.1,0.3
			c-4,0.1-8.1,0.2-12.1,0.3c-5.4,0.1-10.8,0.1-16.3,0.2c-5.4,0-10.8,0-16.3-0.2c-5.4-0.2-10.8-0.5-16.2-1c-0.7-0.1-1.3-0.1-2-0.2
			C67.6,183.5,67.6,183.9,67.9,183.9"/>
		<path id="Path_997" d="M67.5,191c5.4,0.5,10.9,0.9,16.3,1.1c5.4,0.2,10.9,0.3,16.4,0.3c5.4,0,10.8,0,16.2-0.1c2.3,0,4.6-0.1,6.9,0
			c1.6,0,3.2,0.1,4.8,0.1c4.4,0,8.8-0.3,13.1-0.6l1.3-0.1c0.3,0,0.3-0.5,0-0.4c-4.3,0.3-8.6,0.6-13,0.7c-1.7,0-3.4,0-5-0.1
			c-2.2-0.1-4.4-0.1-6.6,0c-5.3,0.1-10.5,0.1-15.8,0.2c-5.5,0-10.9,0-16.4-0.2s-10.9-0.5-16.3-1c-0.7-0.1-1.3-0.1-2-0.2
			C67.2,190.5,67.2,191,67.5,191"/>
		<path id="Path_998" d="M67.5,193.3c5.4,0.5,10.8,0.9,16.2,1.1c5.4,0.2,10.8,0.3,16.2,0.3c5.4,0,10.9-0.1,16.3-0.1
			c4.3-0.1,8.6-0.2,12.9-0.3c3.9-0.1,7.7-0.2,11.6-0.3l1.9-0.1c0.3,0,0.3-0.5,0-0.4c-4.1,0.1-8.1,0.2-12.2,0.3
			c-4.1,0.1-8.1,0.2-12.2,0.3c-5.4,0.1-10.9,0.1-16.3,0.2c-5.4,0-10.9,0-16.3-0.2c-5.4-0.2-10.8-0.5-16.2-1c-0.7-0.1-1.3-0.1-2-0.2
			C67.2,192.8,67.2,193.3,67.5,193.3"/>
		<path id="Path_999" d="M67.5,195.8c6.5,0.4,13.1,0.7,19.6,1c3.9,0.2,7.9,0.3,11.8,0.3c3.3,0,6.6-0.1,9.9-0.1
			c5.3,0,10.6,0.4,16,0.3s10.6-0.1,15.9-0.7c0.6-0.1,1.3-0.2,1.9-0.2c0.3,0,0.2-0.5-0.1-0.4c-5.3,0.6-10.6,0.9-15.9,0.9
			c-2,0-4.1,0.1-6.1,0.1c-3.1-0.1-6.3-0.3-9.4-0.3c-3.7,0-7.5,0.1-11.2,0.1c-3.7,0-7.3-0.1-11-0.3c-6.2-0.2-12.3-0.6-18.5-0.9
			l-2.9-0.2C67.2,195.3,67.2,195.7,67.5,195.8"/>
		<path id="Path_1000" d="M68.5,203.6c5.5,0.6,11,0.9,16.5,1.1s11,0.3,16.5,0.2c5.4,0,10.8-0.1,16.1-0.2c4.3-0.1,8.5-0.1,12.8-0.2
			c3.3,0,6.6-0.1,10-0.3c0.4,0,0.9-0.1,1.3-0.1c0.3,0,0.3-0.5,0-0.4c-3.2,0.2-6.4,0.4-9.6,0.4c-4.4,0.1-8.7,0.1-13.1,0.2
			c-5.1,0.1-10.3,0.1-15.4,0.2c-5.5,0-11,0-16.5-0.2c-5.5-0.2-11-0.5-16.5-1c-0.7-0.1-1.3-0.1-2-0.2
			C68.2,203.1,68.2,203.6,68.5,203.6"/>
		<path id="Path_1001" d="M98.4,133.3c3.9,0.7,8,0.8,11.9,0.1c0.3,0,0.2-0.5-0.1-0.4c-3.9,0.6-7.8,0.6-11.7-0.1
			C98.2,132.8,98.1,133.2,98.4,133.3"/>
		<path id="Path_1002" d="M98.4,134.6c1,0.2,2,0.4,3.1,0.6c1,0.1,2,0.1,3,0.1c2.1,0,4.2,0,6.3-0.2c0.3,0,0.3-0.5,0-0.4
			c-2.1,0.1-4.1,0.2-6.2,0.2c-1,0-2,0-3-0.1c-1-0.1-2-0.4-3-0.6C98.2,134.1,98.1,134.5,98.4,134.6"/>
		<path id="Path_1003" d="M97.9,136.5l12.7,0.3c0.1,0,0.2-0.1,0.2-0.2c0-0.1-0.1-0.2-0.2-0.2l-12.7-0.3c-0.1,0-0.2,0.1-0.2,0.2
			C97.7,136.4,97.8,136.5,97.9,136.5"/>
		<path id="Path_1004" d="M110.6,58.8c0.6,0,0.9,0.8,1.2,1.2c0.3,0.5,0.7,0.9,1.2,1.2c0.9,0.7,1.9,1.3,2.9,1.7
			c1.1,0.5,2.1,1.1,3,1.8c2.1,1.7,3.2,4.4,2.9,7.1c0,0.3,0.4,0.3,0.4,0c0.2-2.6-0.7-5.2-2.7-7.1c-1.8-1.7-4.3-2.3-6.2-3.8
			c-0.6-0.4-1-0.9-1.4-1.5c-0.3-0.5-0.7-1.2-1.4-1.1c-0.1,0-0.2,0.1-0.2,0.2C110.4,58.7,110.5,58.8,110.6,58.8L110.6,58.8"/>
		<path id="Path_1005" d="M121.9,78.8c0.1,0.1-0.1,0.4-0.1,0.5l-0.3,0.7l-0.5,1.2l-1.1,2.5c-0.1,0.3,0.3,0.5,0.4,0.2l1.3-3l0.7-1.5
			c0.1-0.3,0.3-0.7,0-1C122,78.3,121.6,78.6,121.9,78.8"/>
		<path id="Path_1006" d="M110.3,58.5c-0.3,2.2-0.5,4.5-0.7,6.8c-0.2,2.2-0.2,4.3-0.1,6.5c0.4,3.5,1.8,7.2,4.8,9.3
			c1.7,1.2,3.8,1.6,5.4,3c0.2,0.2,0.5-0.1,0.3-0.3c-1.4-1-3-1.9-4.6-2.6c-1.5-0.8-2.8-2.1-3.7-3.6c-2-3.5-2-7.7-1.7-11.6
			c0.2-2.5,0.4-4.9,0.8-7.4C110.7,58.2,110.3,58.2,110.3,58.5"/>
		<path id="Path_1007" d="M111.2,61.3c0.5,1.1,0.8,2.3,0.7,3.5c0.1,1.2,0.3,2.4,0.6,3.6c0.7,2.4,1.6,4.7,2.8,6.8
			c0.7,1.2,1.4,2.4,2.1,3.6c0.1,0.1,0.2,0.1,0.3,0.1c0.1-0.1,0.1-0.2,0.1-0.3c-2.6-4.2-5.1-8.8-5.5-13.8c0-1.3-0.3-2.6-0.8-3.7
			c-0.1-0.1-0.2-0.1-0.3-0.1C111.2,61.1,111.2,61.2,111.2,61.3"/>
		<path id="Path_1008" d="M107.7,86.8c0.9-1.6,2.5-2.8,4.3-3.1c0.9-0.2,1.9-0.4,2.9-0.5c1.2-0.2,2.4-0.1,3.6,0.2
			c1.1,0.4,2,1.1,2.8,1.9c0.8,0.8,1.6,1.7,2.3,2.7c1.3,1.7,1.8,3.8,1.4,5.8c-0.3,2.2-1.4,4.3-3.1,5.8c-0.2,0.2,0.1,0.5,0.3,0.3
			c3-2.9,4.4-7.7,2.2-11.5c-0.7-1.1-1.5-2-2.3-2.9c-0.8-0.9-1.7-1.6-2.7-2.2c-1.1-0.5-2.4-0.8-3.6-0.7c-1.1,0.1-2.2,0.2-3.3,0.4
			c-2.1,0.4-4.3,1.4-5.2,3.4C107.2,86.8,107.5,87,107.7,86.8"/>
		<path id="Path_1009" d="M107.3,87.2l5.8,2.7c1.9,0.9,3.8,1.8,5.7,2.7c0.8,0.4,1.6,1,2,1.7c0.4,0.8,0.7,1.6,0.8,2.5
			c0.4,1.7-0.3,3.4-1.6,4.4c-1.5,0.9-3.3,1.3-5,1.3c-0.3,0-0.3,0.5,0,0.4c1.6,0,3.3-0.4,4.8-1c1.5-0.8,2.5-2.4,2.4-4.1
			c0-0.9-0.2-1.8-0.5-2.7c-0.3-0.9-0.8-1.7-1.5-2.3c-0.8-0.6-1.7-1-2.7-1.4l-3.1-1.4l-7.1-3.3C107.3,86.7,107,87.1,107.3,87.2"/>
		<path id="Path_1010" d="M111.9,86.6c1.7,1.8,4.4,1.8,6.7,2.3c1.2,0.2,2.3,0.7,3.1,1.5c0.9,1,1.3,2.3,1.2,3.7
			c0,1.7-0.2,3.4-0.7,5.1c0,0.1,0,0.2,0.2,0.3c0.1,0,0.2,0,0.3-0.2c0.5-1.5,0.7-3.1,0.7-4.6c0.1-1.4-0.2-2.7-0.8-3.9
			c-1.4-2.1-4.2-2.3-6.5-2.7c-1.4-0.1-2.8-0.7-3.8-1.7C112,86,111.7,86.4,111.9,86.6"/>
		<path id="Path_1011" d="M117.5,71.8c-0.1-0.1,0-0.3,0.1-0.5c0.2-0.2,0.4-0.2,0.6-0.2c0.5,0.2,1,0.4,1.4,0.6c0.9,0.4,1.9,0.7,2.8,1
			c1.9,0.5,3.9,0.7,5.9,0.7c1,0,2-0.1,2.9-0.3c0.2,0,0.5-0.1,0.7-0.1c0.3-0.1,0.6-0.1,0.9,0c0.6,0.4-0.2,0.8-0.5,1
			c-1.7,1.2-3.4,2.1-5,3.4c-1.6,1.2-2.9,2.9-3.5,4.8c0,0.1,0,0.2,0.2,0.3c0.1,0,0.2,0,0.3-0.2c0.6-1.9,1.9-3.6,3.6-4.8
			c0.9-0.7,1.9-1.3,2.8-1.9c0.5-0.3,1-0.6,1.4-0.9c0.2-0.2,0.4-0.3,0.7-0.5c0.2-0.1,0.4-0.3,0.6-0.5c0.2-0.3,0.2-0.8-0.1-1
			c-0.4-0.3-0.9-0.4-1.3-0.2c-1.1,0.2-2.2,0.4-3.3,0.4c-2.2,0.1-4.4-0.2-6.6-0.8c-0.6-0.2-1.2-0.4-1.7-0.6c-0.6-0.2-1.1-0.5-1.7-0.7
			c-0.5-0.2-1-0.1-1.4,0.2c-0.3,0.3-0.3,0.7-0.1,1.1C117.4,72.3,117.7,72,117.5,71.8"/>
		<path id="Path_1012" d="M117.1,71.7c0.2,0.9,0.6,1.8,1.3,2.5l2.2,2.8c0.7,0.9,1.4,1.8,2.1,2.7c0.7,0.7,1.1,1.7,1.2,2.6
			c0,0.3,0.5,0.3,0.4,0c-0.1-0.9-0.5-1.8-1-2.5c-0.6-0.9-1.3-1.7-2-2.6l-2.1-2.7c-0.8-0.7-1.3-1.7-1.6-2.7
			C117.5,71.5,117.1,71.5,117.1,71.7"/>
		<path id="Path_1013" d="M124.5,74.7l-0.4,4c0,0.3,0.4,0.3,0.4,0l0.4-4C125,74.4,124.6,74.4,124.5,74.7"/>
		<path id="Path_1014" d="M104.7,39.7c4.1,1.8,6,6.2,9.3,9c1.8,1.4,3.6,2.6,5.6,3.6c2,1,3.7,2.5,5,4.2c1.6,2.3,2.1,5.2,3.7,7.4
			c0.2,0.2,0.6,0,0.4-0.2c-1.5-2-2-4.5-3.3-6.7c-1.2-1.9-2.8-3.5-4.8-4.6c-1.9-1.2-3.9-2.2-5.7-3.6c-1.7-1.4-3.2-3.1-4.6-4.8
			c-1.4-2-3.3-3.6-5.5-4.8C104.7,39.2,104.4,39.6,104.7,39.7"/>
		<path id="Path_1015" d="M105,39.9l4-0.2c1.3-0.1,2.7-0.1,4,0c2.3,0.3,4.5,1.1,6.5,2.5c1.1,0.7,2.2,1.5,3.3,2.2
			c0.2,0.2,0.5-0.2,0.2-0.4c-1.9-1.5-3.9-2.7-6.1-3.7c-1.1-0.5-2.2-0.8-3.3-1c-1.3-0.1-2.6-0.2-3.9-0.1l-4.6,0.2
			C104.7,39.4,104.7,39.9,105,39.9"/>
		<path id="Path_1016" d="M124.5,47.2l1.4,2.6c0.5,0.8,0.8,1.7,1.1,2.6c0.4,1.9,0.5,3.9,0.5,5.8c0,1.1-0.1,2.2-0.2,3.3
			c0,0.3,0.4,0.3,0.4,0c0.2-2,0.3-4.1,0.1-6.1c-0.1-1-0.2-2-0.3-2.9c-0.2-0.9-0.5-1.8-0.9-2.5c-0.6-1-1.1-2-1.7-3
			C124.7,46.7,124.4,47,124.5,47.2"/>
		<path id="Path_1017" d="M109.6,41c2.9,1.1,4.9,3.5,7.2,5.6c0.6,0.5,1.1,1,1.7,1.5c0.7,0.5,1.4,1,2.1,1.4c1.4,0.9,2.7,2,3.7,3.3
			c1.1,1.4,1.8,3.1,2.2,4.9c0.1,0.3,0.5,0.2,0.4-0.1c-0.7-3.2-2.6-6-5.3-7.8c-0.8-0.5-1.6-1-2.4-1.5c-0.6-0.5-1.3-1-1.8-1.5
			c-1.2-1.1-2.3-2.2-3.4-3.2c-1.3-1.2-2.7-2.1-4.3-2.8C109.5,40.5,109.4,40.9,109.6,41"/>
		<path id="Path_1018" d="M131.9,48.4c1.3,1.5,1.9,3.5,1.8,5.5c0,0.3,0.4,0.3,0.4,0c0.1-2.1-0.6-4.2-1.9-5.8
			C132,47.8,131.7,48.1,131.9,48.4"/>
		<path id="Path_1019" d="M131.9,48c-2.1,2.7-2.5,6.2-2.4,9.5c0,1.1,0.1,2.1,0.2,3.2c0,0.3,0.5,0.3,0.4,0c-0.4-4.2-0.7-8.9,2-12.4
			C132.4,48.1,132.1,47.8,131.9,48"/>
		<path id="Path_1020" d="M123,47.7c-0.1-2,0.4-3.9,1.3-5.7c0.5-0.8,1.6-1.8,2.6-1.5c0.5,0.2,1,0.5,1.3,1c0.4,0.4,0.8,0.8,1.2,1.2
			c1.4,1.6,3.1,3,5,4c1,0.4,2,0.7,3,1.1c0.5,0.2,1,0.5,1.4,0.8c0.1,0.1,0.3,0.2,0.3,0.4c0,0.1-0.1,0.3-0.2,0.4
			c-0.1,0.2-0.3,0.3-0.5,0.5c-1.5,1.3-3.7,1.7-4.6,3.5c-0.1,0.3,0.2,0.5,0.4,0.2c0.9-1.7,3.1-2.2,4.5-3.4c0.4-0.3,0.7-0.7,0.9-1.1
			c0.1-0.6-0.5-0.9-0.9-1.2c-1-0.6-2.1-1-3.2-1.3c-2.2-0.9-4.1-2.3-5.6-4.1c-0.4-0.4-0.8-0.9-1.2-1.3c-0.4-0.4-0.8-0.8-1.3-1
			c-1.1-0.3-2.2,0-2.9,0.9c-1.6,1.7-1.8,4.3-1.9,6.6C122.6,48,123,48,123,47.7"/>
		<path id="Path_1021" d="M123,47.8c0.7-0.5,1.6-0.8,2.5-0.9c0.9-0.1,1.9,0,2.8,0.2c1.9,0.4,3.7,0.6,5.6,0.7
			c1.1,0.1,2.2,0.1,3.3,0.2c0.3,0,0.3-0.4,0-0.4c-2-0.1-3.9-0.2-5.9-0.4c-1-0.1-2-0.3-3-0.5c-0.9-0.2-1.8-0.3-2.7-0.2
			c-1,0.1-1.9,0.4-2.7,1C122.5,47.6,122.8,47.9,123,47.8"/>
		<path id="Path_1022" d="M136.8,29.7c2.2,0.7,4,2.4,4.7,4.5c0.5,1.3,0.6,2.6,0.3,3.9c-0.3,1.4-0.8,2.7-1.6,3.8
			c-0.9,1.4-1.9,2.8-2.9,4.1c-0.2,0.2,0.2,0.5,0.4,0.2c0.9-1.3,1.9-2.6,2.8-3.9c0.9-1.2,1.5-2.6,1.8-4c0.5-2.5-0.3-5.2-2-7.1
			c-0.9-1-2.1-1.7-3.3-2.1c-0.1,0-0.2,0-0.3,0.2C136.6,29.6,136.7,29.7,136.8,29.7L136.8,29.7"/>
		<path id="Path_1023" d="M136.5,29.4c-1,0.8-2,1.7-2.9,2.7c-0.8,0.9-1.4,2-1.6,3.2c-0.1,1.2,0.3,2.4,1.1,3.3c0.8,1,1.5,2.1,2.2,3.3
			c0.8,1.3,1.4,2.6,2,4c0.1,0.3,0.5,0,0.4-0.2c-1-2.3-2.2-4.5-3.7-6.6c-0.8-0.9-1.4-1.9-1.6-3.1c0-1.2,0.5-2.4,1.4-3.3
			c0.9-1.1,1.9-2.1,3-2.9C137,29.6,136.7,29.3,136.5,29.4"/>
		<path id="Path_1024" d="M137.5,46C137.5,46,137.5,46.1,137.5,46C137.5,46,137.5,46.1,137.5,46c0,0.1,0,0.1,0,0.1
			c0,0.1,0,0.1,0,0.2c0,0,0,0,0,0.1s0,0,0,0v0c0,0.1,0,0.1,0,0.1c0,0,0,0.1,0,0.2c0,0,0,0,0,0c0,0,0,0,0,0c0,0,0,0,0,0.1
			c0,0,0,0.1,0,0.1c0,0,0,0.1,0,0.1c0,0,0,0,0,0c-0.1,0.1,0,0.2,0.1,0.3c0.1,0.1,0.2,0,0.3-0.1c0.2-0.5,0.2-1,0-1.5
			c-0.1-0.1-0.2-0.1-0.3-0.1C137.4,45.8,137.4,45.9,137.5,46"/>
		<path id="Path_1025" d="M143.1,10.3c-1,1.3-2,2.6-2.9,4c-0.9,1.2-1.7,2.6-2.3,4c-1,2.5-1.2,5.3-0.6,7.9c0.3,1.5,0.9,2.9,1.7,4.2
			c0.2,0.2,0.5,0,0.4-0.2c-1.4-2.3-2.1-4.9-2-7.6c0.1-1.3,0.3-2.6,0.8-3.9c0.6-1.4,1.3-2.7,2.2-3.9c1-1.4,2.1-2.8,3.1-4.3
			C143.7,10.3,143.3,10.1,143.1,10.3"/>
		<path id="Path_1026" d="M143.2,10.7c1.2,1.8,2.7,3.5,4.2,4.9c0.2,0.2,0.5-0.1,0.3-0.3c-1.6-1.5-3-3.1-4.2-4.9
			C143.5,10.2,143.1,10.5,143.2,10.7"/>
		<path id="Path_1027" d="M143.3,15.6c0.9,4.1,0,8.3-0.3,12.4c-0.1,1.2-0.2,2.4-0.1,3.6c0,0.1,0.1,0.2,0.2,0.2
			c0.1,0,0.2-0.1,0.2-0.2c-0.1-4.2,1-8.4,0.9-12.6c0-1.2-0.2-2.3-0.4-3.4C143.7,15.2,143.3,15.3,143.3,15.6"/>
		<path id="Path_1028" d="M137.1,32c-0.3,4.3,0.5,8.7,0.4,13c0,0.1,0.1,0.2,0.2,0.2c0.1,0,0.2-0.1,0.2-0.2c0-4.3-0.7-8.7-0.4-13
			C137.6,31.8,137.1,31.8,137.1,32"/>
		<path id="Path_1029" d="M150,11.7c1.6,1.6,2.8,3.5,3.6,5.6c0.1,0.3,0.5,0.2,0.4-0.1c-0.8-2.2-2.1-4.2-3.7-5.8
			c-0.1-0.1-0.2-0.1-0.3,0S149.9,11.6,150,11.7"/>
		<path id="Path_1030" d="M150,11.4c-2.5,3.1-3.8,7-3.6,11c0.1,1.1,0.2,2.2,0.5,3.3c0,0.1,0.2,0.2,0.3,0.2c0.1,0,0.2-0.2,0.2-0.3
			c-1-3.7-0.6-7.7,1.2-11.1c0.5-1,1.1-1.9,1.8-2.7C150.5,11.5,150.2,11.1,150,11.4"/>
		<path id="Path_1031" d="M158.1,6.2c0,0.8-0.1,1.6-0.3,2.4c-0.1,0.7,0,1.4,0.1,2.2c0.2,0.8,0.2,1.6,0.2,2.4
			c-0.1,0.8-0.2,1.6-0.3,2.3c-0.4,2.7-1.1,5.4-2,8c-0.6,1.4-1.3,2.8-2.3,4c-0.2,0.2,0.1,0.5,0.3,0.3c1.7-2.2,2.9-4.8,3.5-7.5
			c0.4-1.4,0.6-2.8,0.9-4.1c0.4-1.5,0.5-3.1,0.4-4.6c-0.2-0.9-0.3-1.7-0.3-2.6c0.2-0.9,0.3-1.7,0.3-2.6
			C158.6,5.9,158.1,5.9,158.1,6.2"/>
		<path id="Path_1032" d="M157.8,9.3c-0.7,1.1-1.3,2.2-2,3.3c-0.6,1.1-1.3,2.1-1.8,3.2c-1,2.1-1.7,4.4-2,6.7c-0.2,1.3-0.3,2.7-0.3,4
			c0,0.1,0.1,0.2,0.2,0.2c0.1,0,0.2-0.1,0.2-0.2c0-2.3,0.3-4.7,0.9-7c0.7-2.3,1.6-4.4,2.9-6.4c0.7-1.2,1.4-2.4,2.2-3.7
			c0.1-0.1,0-0.2-0.1-0.3C158,9.1,157.9,9.2,157.8,9.3"/>
		<path id="Path_1033" d="M150,14.7c-0.5,3.1-0.8,6.2-0.8,9.3c0,0.1,0.1,0.2,0.2,0.2c0.1,0,0.2-0.1,0.2-0.2c0-3.1,0.3-6.1,0.8-9.2
			C150.5,14.5,150.1,14.4,150,14.7"/>
		<path id="Path_1034" d="M157.1,13c-1.3,3.1-2.3,6.2-3.2,9.4c0,0.1,0,0.2,0.2,0.3s0.2,0,0.3-0.2c0.9-3.2,2-6.3,3.2-9.4
			C157.6,12.9,157.2,12.7,157.1,13"/>
		<path id="Path_1035" d="M133.4,45.3c0.8-0.8,1.6-1.7,2.4-2.6c0.1-0.1,0.1-0.2,0-0.3c-0.1-0.1-0.2-0.1-0.3,0
			c-0.7,0.9-1.5,1.8-2.4,2.6C132.8,45.2,133.2,45.5,133.4,45.3"/>
		<path id="Path_1036" d="M132.6,61.4c1.5-2.2,3.4-4.1,5.6-5.6c1-0.8,2.1-1.6,3.1-2.5c1-1,2-2.1,2.8-3.3c1.1-1.6,2-3.3,3-4.9
			c0.1-0.3-0.2-0.5-0.4-0.2c-0.8,1.5-1.7,3-2.6,4.5c-0.8,1.3-1.7,2.4-2.8,3.5c-1.9,1.8-4.2,3.3-6.1,5c-1.1,1-2,2.1-2.8,3.3
			c-0.1,0.1,0,0.2,0.1,0.3C132.5,61.5,132.6,61.5,132.6,61.4"/>
		<path id="Path_1037" d="M145.9,36.2c0.4-1.1,0.6-2.2,0.6-3.4c-0.1-0.5-0.2-1.1-0.5-1.5c-0.4-0.5-0.7-1-0.9-1.5
			c-0.4-1.1-0.1-2.3,0.7-3.1c0.8-0.7,2-1,3-0.7c1.1,0.4,2.1,0.8,3.1,1.3c0.6,0.2,1.1,0.4,1.7,0.5c0.6,0.1,1.2,0.2,1.7,0.5
			c0.5,0.2,0.8,0.6,1,1.1c0.1,0.6-0.1,1.1-0.5,1.5c-0.8,0.8-1.8,1.4-2.8,1.7c-2.3,0.8-4.9,1.1-7,2.5c-0.2,0.2,0,0.5,0.2,0.4
			c2-1.3,4.5-1.6,6.8-2.4c1.1-0.3,2.1-0.9,3-1.7c0.9-0.7,1-1.9,0.4-2.8c-0.8-1-2.1-1-3.3-1.3c-1.2-0.4-2.3-0.8-3.5-1.4
			c-1-0.5-2.2-0.5-3.3-0.1c-1,0.5-1.7,1.4-1.9,2.5c-0.1,0.6,0,1.3,0.2,1.8c0.3,0.7,0.8,1.2,1.1,1.8c0.4,1.4,0.3,2.9-0.3,4.2
			C145.4,36.3,145.8,36.5,145.9,36.2"/>
		<path id="Path_1038" d="M147.6,33.1c0.6-1.1,1.5-2,2.6-2.6c1-0.4,1.9-1.1,2.5-2c0.1-0.3-0.3-0.5-0.4-0.2c-0.5,1-1.7,1.4-2.6,2
			c-1.1,0.6-1.9,1.5-2.5,2.6C147.1,33.2,147.5,33.4,147.6,33.1"/>
		<path id="Path_1039" d="M156.5,28.7c2-0.2,4,0.2,5.8,1.2c1.8,0.8,3.4,2,5.2,2.7c1,0.4,2.1,0.6,3.2,0.7c0.3,0,0.3-0.4,0-0.4
			c-1,0-2-0.2-2.9-0.6c-0.9-0.4-1.8-0.8-2.6-1.3c-1.7-1-3.5-1.9-5.4-2.4c-1.1-0.3-2.2-0.4-3.3-0.2C156.2,28.3,156.2,28.7,156.5,28.7
			"/>
		<path id="Path_1040" d="M146.3,36.4c0.8-0.2,1.7-0.3,2.5-0.1c0.8,0.1,1.6,0,2.3-0.1c1.5-0.4,2.9-1,4.3-1.7
			c0.7-0.3,1.5-0.6,2.2-0.8c0.8-0.2,1.6-0.3,2.5-0.4c1.7,0,3.4,0.1,5,0.3c1.8,0.2,3.7,0.1,5.5-0.3c0.1,0,0.2-0.2,0.2-0.3
			c0-0.1-0.2-0.2-0.3-0.2c-3.3,0.9-6.6,0-9.9,0c-1.6,0-3.2,0.3-4.7,0.9c-1.4,0.7-2.9,1.3-4.3,1.9c-0.8,0.3-1.7,0.3-2.6,0.3
			c-0.9-0.2-1.9-0.1-2.8,0.1C145.9,36,146,36.5,146.3,36.4"/>
		<path id="Path_1041" d="M158,31.5c1.6-0.3,3.2-0.2,4.7,0.1c0.3,0.1,0.4-0.4,0.1-0.4c-1.6-0.4-3.3-0.4-5-0.1
			C157.6,31.2,157.7,31.6,158,31.5"/>
		<path id="Path_1042" d="M141.6,41c1.6,0.1,3.3,0,4.9-0.2c1.5-0.3,2.9-0.8,4.3-1.5c2.4-1.4,4.5-3.4,7.2-4.4c0.6-0.3,1.3-0.4,2-0.4
			c0.8,0.2,0.7,1.1,0.4,1.6c-0.3,0.6-0.7,1.2-1.1,1.7c-0.5,0.5-1,1.1-1.5,1.5c-1.1,0.9-2.3,1.6-3.6,2c-1.6,0.4-3.2,0.6-4.8,0.6
			c-0.9,0-1.9,0.2-2.8,0.4c-0.8,0.2-1.7,0.5-2.5,0.8c-1.6,0.7-3.3,1.1-5.1,1.1c-0.3,0-0.3,0.4,0,0.4c1.6,0,3.2-0.3,4.6-0.9
			c1.6-0.7,3.2-1.1,4.9-1.3c1.7,0,3.4-0.2,5.1-0.5c2.8-0.7,5.2-2.5,6.8-4.9c0.4-0.5,0.6-1.2,0.6-1.9c-0.1-0.6-0.7-1.1-1.3-1.1
			c-0.7,0-1.4,0.2-2.1,0.5c-0.7,0.3-1.3,0.6-1.9,0.9c-1.3,0.8-2.5,1.7-3.7,2.5c-1.2,0.9-2.6,1.6-4.1,2.1c-1.7,0.5-3.4,0.7-5.2,0.6
			c-0.4,0-0.8,0-1.3,0C141.3,40.6,141.3,41,141.6,41"/>
		<path id="Path_1043" d="M143.1,40.8c0.8-1.5,2.1-2.7,3.8-3.2c2-0.6,4.1-0.7,6.1-0.3c0.3,0,0.4-0.4,0.1-0.4c-3.1-0.5-6.5-0.4-9,1.8
			c-0.6,0.5-1.1,1.2-1.4,1.9C142.6,40.8,143,41.1,143.1,40.8"/>
		<path id="Path_1044" d="M139.1,47.4c2.9,0.2,5.5-1.5,8.1-2.5c1.5-0.6,3.1-0.9,4.7-1.2c1.7-0.3,3.4-0.6,5-0.8l5.7-1
			c0.3,0,0.2-0.5-0.1-0.4l-10.1,1.7c-1.6,0.2-3.2,0.6-4.8,1.1c-1.3,0.5-2.6,1.1-3.9,1.7c-1.5,0.7-3.1,1.1-4.7,1
			C138.8,46.9,138.8,47.4,139.1,47.4"/>
		<path id="Path_1045" d="M158.7,39.2c1.3,0.2,2.5,1,3.2,2.2c0.1,0.1,0.2,0.1,0.3,0.1c0.1-0.1,0.1-0.2,0.1-0.3
			c-0.8-1.3-2-2.1-3.5-2.4C158.6,38.8,158.5,39.2,158.7,39.2"/>
		<path id="Path_1046" d="M132.6,61.9c1.2-0.4,2.4-1,3.4-1.7c1.1-0.7,2-1.5,2.9-2.5c0.9-1,2-1.7,3.3-2.2c1.2-0.4,2.5-0.7,3.8-0.8
			c2.6-0.2,5.2,0.1,7.7,0.9c2.4,0.9,4.7,2.2,6.7,3.8c2.3,1.8,4.3,3.8,6.6,5.5c0.2,0.2,0.5-0.2,0.2-0.4c-4.1-3.1-7.7-7.1-12.6-9
			c-2.4-0.9-5.1-1.4-7.7-1.3c-2.6,0-5.2,0.7-7.4,2.2c-1.2,0.9-2.1,2-3.3,2.9c-1.2,0.9-2.5,1.6-4,2C132.2,61.6,132.4,62,132.6,61.9"
			/>
		<path id="Path_1047" d="M132.3,62c2.4-0.3,4.7-1,7.1-1.4c2.3-0.4,4.6-0.6,6.9-0.5c4.6,0.1,9.2,1,13.5,2.7c2.4,0.9,4.7,2.1,7.3,2
			c0.1,0,0.2-0.1,0.2-0.2c0-0.1-0.1-0.2-0.2-0.2c-2.3-0.1-4.6-0.8-6.6-1.8c-2.1-0.9-4.3-1.6-6.6-2c-4.5-1-9.1-1.1-13.6-0.5
			c-2.7,0.4-5.3,1.2-8,1.5C132,61.6,132,62.1,132.3,62"/>
		<path id="Path_1048" d="M139,58.3c3.2-0.6,6.5-0.8,9.7-0.6c3,0.4,6,1.4,8.6,2.9c1.5,0.8,3,1.7,4.4,2.6c0.2,0.2,0.5-0.2,0.2-0.4
			c-2.6-1.7-5.3-3.2-8.2-4.3c-1.4-0.6-2.9-0.9-4.5-1.1c-1.6-0.2-3.3-0.2-4.9-0.1c-1.9,0.1-3.7,0.4-5.5,0.6
			C138.6,57.9,138.7,58.4,139,58.3"/>
		<path id="Path_1049" d="M130.1,73c1.5-1.5,3.5-2.3,5.5-2.4c1.1-0.1,2.1-0.2,3.2-0.1c1.2,0,2.4,0.1,3.6,0.3
			c2.2,0.3,4.3,1.2,6.1,2.6c1.5,1.3,2.9,2.7,4.2,4.3c1.4,1.8,3.1,3.3,4.9,4.7c0.2,0.2,0.5-0.2,0.2-0.4c-3.5-2.3-5.6-6.1-8.8-8.7
			c-1.7-1.4-3.8-2.4-6-2.8c-2.3-0.4-4.7-0.5-7-0.3c-2.3,0-4.6,0.9-6.3,2.6C129.5,72.9,129.9,73.2,130.1,73"/>
		<path id="Path_1050" d="M125.1,80.9c1.8-1.1,3.7-2,5.7-2.7c2-0.7,4.1-1,6.2-0.7c2.2,0.4,4.4,0.9,6.5,1.5c2.2,0.6,4.4,1.1,6.6,1.6
			c2.5,0.6,5,1.1,7.5,1.6c0.3,0.1,0.4-0.4,0.1-0.4c-4.5-0.9-9-1.9-13.5-3.1c-2.2-0.7-4.4-1.2-6.6-1.6c-2.1-0.3-4.2-0.2-6.3,0.4
			c-2.2,0.8-4.4,1.8-6.5,3C124.7,80.6,124.9,81,125.1,80.9"/>
		<path id="Path_1051" d="M135.3,74.4c1.3,0,2.5-0.1,3.8-0.1c1.1,0,2.3,0.1,3.4,0.4c2.2,0.5,4.3,1.4,6.3,2.5c1.1,0.6,2.2,1.3,3.3,2
			c0.2,0.2,0.5-0.2,0.2-0.4c-3.8-2.5-8-4.7-12.7-4.9c-1.4-0.1-2.9,0.1-4.3,0.1c-0.1,0-0.2,0.1-0.2,0.2
			C135.1,74.3,135.2,74.4,135.3,74.4"/>
		<path id="Path_1052" d="M110.5,118.1c2.7-4.9,5.7-10,10.3-13.4c2.2-1.6,4.7-2.7,7.4-3.1c1.3-0.2,2.7-0.2,4,0.1
			c1.5,0.3,3,0.8,4.4,1.4c3.2,1.4,6.2,3,9.2,4.8c0.2,0.2,0.5-0.2,0.2-0.4c-2.7-1.7-5.5-3.2-8.4-4.5c-2.6-1.4-5.5-2.1-8.5-2
			c-5.7,0.4-10.4,4.1-13.8,8.5c-1.9,2.6-3.7,5.4-5.2,8.3C110,118.2,110.4,118.4,110.5,118.1"/>
		<path id="Path_1053" d="M110,118.8c2.5-0.9,4.9-1.8,7.5-2.5c2.5-0.8,5-1.6,7.5-2.2c1.2-0.3,2.5-0.6,3.8-0.7c1.3-0.1,2.6,0,3.9-0.1
			c2.3-0.1,4.6-0.9,6.5-2.3c1-0.8,2.1-1.6,3.2-2.3c1.1-0.7,2.5-0.9,3.8-0.4c0.3,0.1,0.5-0.3,0.2-0.4c-2.2-1-4.4,0.4-6.1,1.7
			c-0.9,0.8-1.9,1.5-3,2c-1.1,0.5-2.2,0.9-3.4,1.1c-1.3,0.1-2.6,0.2-4,0.2c-1.3,0-2.6,0.2-3.9,0.5c-2.6,0.6-5.1,1.3-7.6,2.1
			c-2.9,0.9-5.7,1.8-8.5,2.9C109.7,118.5,109.8,118.9,110,118.8"/>
		<path id="Path_1054" d="M113,117.2c5.6-6.8,14-10.7,22.8-10.5c3,0.1,5.9,0.4,8.9,0.9c0.3,0,0.4-0.4,0.1-0.4
			c-5-0.7-10.1-1.3-15.1-0.4c-4.2,0.8-8.2,2.6-11.7,5.1c-2,1.4-3.7,3.1-5.3,5C112.5,117.2,112.8,117.5,113,117.2"/>
		<path id="Path_1055" d="M123.1,80.1c-0.8,1.4-1.4,2.8-1.9,4.3c-0.1,0.3,0.3,0.4,0.4,0.1c0.5-1.5,1.1-2.9,1.9-4.2
			c0.1-0.1,0-0.2-0.1-0.3C123.3,80,123.2,80,123.1,80.1"/>
		<path id="Path_1056" d="M116.8,92.6c-2.3,4.4-4.2,9.1-5.5,13.9c-1.5,5.1-3,10.2-4.5,15.3c-0.9,2.9-1.7,5.8-2.5,8.8
			c0,0.1,0,0.2,0.2,0.3s0.2,0,0.3-0.2c1.4-5.2,3-10.3,4.5-15.5c1.5-4.9,2.8-9.9,4.5-14.7c0.9-2.7,2.1-5.2,3.5-7.7
			c0.1-0.1,0-0.2-0.1-0.3C117,92.5,116.9,92.5,116.8,92.6"/>
		<path id="Path_1057" d="M119,92.7c-2.3,4.5-4.3,9.2-5.8,14c-1.6,4.9-3.1,10-4.5,14.9c-0.9,3-1.7,5.9-2.6,8.9c0,0.1,0,0.2,0.2,0.3
			c0.1,0,0.2,0,0.3-0.2c1.5-5.2,3.1-10.4,4.6-15.6c1.4-4.8,2.9-9.7,4.8-14.4c1-2.7,2.2-5.3,3.6-7.8C119.5,92.6,119.1,92.4,119,92.7"
			/>
		<path id="Path_1058" d="M133.9,53.4c-2.4,5-4.8,9.9-7.2,14.9c-0.7,1.4-1.4,2.8-2.1,4.2c-0.1,0.3,0.3,0.5,0.4,0.2
			c2.5-4.9,4.9-9.9,7.3-14.8c0.7-1.4,1.3-2.8,2-4.2C134.4,53.4,134,53.1,133.9,53.4"/>
		<path id="Path_1059" d="M136.8,51.2c-0.9,1.2-1.6,2.4-2.2,3.7c-0.7,1.4-1.3,2.8-2,4.2l-4.1,8.7l-2.4,5c-0.1,0.3,0.3,0.5,0.4,0.2
			c2.7-5.8,5.4-11.5,8.2-17.3c0.7-1.5,1.5-2.9,2.5-4.2C137.2,51.3,136.9,51,136.8,51.2"/>
		<path id="Path_1060" d="M132,62.1c0.3-0.1,0.6-0.3,0.8-0.6c0-0.1,0-0.1,0-0.2c0-0.1-0.2-0.2-0.3-0.2c-0.1,0-0.1,0.1-0.1,0.1
			c0,0.1-0.1,0.1-0.1,0.2l0,0c-0.1,0.1-0.1,0.1-0.2,0.2l0,0c-0.1,0-0.1,0.1-0.2,0.1l0.1,0c0,0-0.1,0-0.1,0c-0.1,0-0.2,0.2-0.2,0.3
			C131.7,62.1,131.8,62.1,132,62.1"/>
		<path id="Path_1061" d="M142.5,41.1c-0.3,0.5-0.8,0.9-1.2,1.3c-0.4,0.4-0.7,0.9-1,1.5c-0.7,1.3-1.3,2.5-2,3.8
			c-0.1,0.3,0.3,0.5,0.4,0.2c0.7-1.3,1.3-2.6,2-3.8c0.3-0.6,0.6-1.1,1.1-1.5c0.4-0.3,0.8-0.8,1.2-1.2C143,41,142.6,40.8,142.5,41.1"
			/>
		<path id="Path_1062" d="M145.8,34.6c-1.3,0.6-2.4,1.4-3.4,2.4c-0.1,0.1-0.1,0.2,0,0.3c0.1,0.1,0.2,0.1,0.3,0c1-1,2.1-1.7,3.3-2.3
			C146.3,34.9,146,34.5,145.8,34.6"/>
		<path id="Path_1063" d="M145.6,36.3L145.6,36.3C145.6,36.4,145.6,36.3,145.6,36.3c0,0.1,0,0.1,0,0.1c0,0.1,0,0.1,0,0.2v0
			c0,0,0-0.1,0,0c0,0,0,0.1,0,0.1c0,0.1,0,0.1,0,0.2l0,0c0,0,0,0,0,0c0,0,0,0.1,0,0.1c0,0-0.1,0.1-0.1,0.1l0,0c0,0,0,0,0,0
			c0,0,0,0-0.1,0.1c0,0-0.1,0.1-0.1,0.1c-0.1,0.1-0.1,0.2,0,0.3c0.1,0.1,0.2,0.1,0.3,0c0.4-0.4,0.6-0.9,0.5-1.5
			c0-0.1-0.2-0.2-0.3-0.2C145.6,36.1,145.5,36.2,145.6,36.3"/>
		<path id="Path_1064" d="M135.2,82.8c-0.5,1.6,0.7,2.9,1.7,4c1.1,1.2,1.9,2.7,2.3,4.2c0.2,0.8,0.4,1.6,0.4,2.4
			c0,0.8-0.2,1.7-0.7,2.3c-1,1.3-2.2,2.3-3.7,3c-1.5,0.8-3.4,1-4.6,2.2c-0.2,0.2,0.1,0.5,0.3,0.3c1.1-1.1,2.8-1.3,4.2-2
			c1.5-0.7,2.8-1.7,3.8-2.9c0.5-0.6,0.9-1.2,1.1-2c0.1-0.8,0.1-1.7-0.1-2.5c-0.3-1.6-0.9-3.1-1.8-4.4c-0.5-0.7-1.2-1.4-1.8-2.1
			c-0.7-0.7-1-1.7-0.8-2.6C135.7,82.6,135.3,82.5,135.2,82.8"/>
		<path id="Path_1065" d="M135.3,82.6c-0.8,1.2-2.6,0.9-3.9,1c-0.7,0-1.4,0.3-1.9,0.6c-0.4,0.4-0.8,0.8-1,1.4
			c-0.4,1.3-0.6,2.7-0.5,4.1c0,1.8-0.1,3.6-0.1,5.3c0,2,0,4.1,0,6.1c0,0.1,0.1,0.2,0.2,0.2c0.1,0,0.2-0.1,0.2-0.2
			c0-3.5,0-7,0.1-10.6c0-0.8,0-1.7,0.1-2.5c0-0.6,0.1-1.3,0.3-1.9c0.1-0.6,0.5-1.1,0.9-1.5c0.6-0.4,1.3-0.6,2-0.6
			c1.4-0.1,3.1,0.1,4-1.2C135.8,82.6,135.4,82.4,135.3,82.6"/>
		<path id="Path_1066" d="M133.5,85.5c-1.6,1.5-1.3,3.8-1.5,5.8c-0.2,2.2-0.9,4.3-1.9,6.2c-0.5,1.1-1.1,2.2-1.7,3.2
			c-0.1,0.3,0.2,0.5,0.4,0.2c1.1-1.8,2-3.7,2.7-5.7c0.4-1,0.6-2,0.8-3c0.2-1.1,0.1-2.2,0.2-3.3c0-1.1,0.5-2.3,1.2-3.1
			C134,85.6,133.7,85.3,133.5,85.5"/>
		<path id="Path_1067" d="M141,110c1.8,1.2,3.3,2.8,4.4,4.7c0.5,1.2,0.8,2.4,0.8,3.7c0.1,1.3,0.2,2.6,0.2,4c0,1.5,0,3-0.2,4.5
			c0,0.3,0.4,0.3,0.4,0c0.2-2.8,0.2-5.5,0-8.3c0-1.3-0.3-2.5-0.7-3.7c-0.4-1-1.1-1.9-1.8-2.7c-0.9-0.9-1.8-1.7-2.8-2.5
			C141.1,109.5,140.8,109.8,141,110"/>
		<path id="Path_1068" d="M134.1,113.3c0.8,0.9,1.4,1.9,1.8,3c0.6,1,1.2,2,2,2.9c1.5,1.9,3.2,3.6,5,5.1c1,0.9,2.1,1.8,3.1,2.6
			c0.2,0.2,0.5-0.1,0.3-0.3c-3.7-3.1-7.4-6.2-9.8-10.4c-0.5-1.2-1.2-2.3-2.1-3.3C134.2,112.8,133.9,113.1,134.1,113.3"/>
		<path id="Path_1069" d="M139.2,113c1.4,0.9,2.7,2.2,3.6,3.7c0.4,0.9,0.7,1.8,1,2.7c0.3,0.9,0.7,1.8,1.1,2.7c0.1,0.3,0.5,0,0.4-0.2
			c-0.5-0.9-0.9-1.9-1.2-2.8c-0.3-0.9-0.6-1.8-1-2.7c-1-1.5-2.2-2.7-3.7-3.7C139.2,112.5,139,112.9,139.2,113"/>
		<path id="Path_1070" d="M116.8,117.7c0.4-0.6,1.1-1,1.8-1c0.8-0.1,1.6,0.1,2.3,0.5c0.8,0.4,1.5,0.9,2.2,1.4c0.7,0.5,1.4,1,2.1,1.5
			c2.8,2.1,6,3.6,9.3,4.6c1.7,0.4,3.7,0.6,5.1,1.7c0.2,0.2,0.5-0.1,0.3-0.3c-1.4-0.9-3-1.5-4.6-1.7c-1.8-0.4-3.5-1-5.1-1.8
			c-1.6-0.8-3.2-1.8-4.7-2.8c-0.8-0.5-1.5-1-2.3-1.6c-0.7-0.6-1.5-1.1-2.4-1.5c-0.8-0.4-1.7-0.6-2.6-0.5c-0.8,0.1-1.5,0.5-2,1.2
			C116.2,117.7,116.6,117.9,116.8,117.7"/>
		<path id="Path_1071" d="M120.4,116.8c1.6,0.3,3.2,0.4,4.8,0.3c1.6-0.2,3.2-0.3,4.8-0.2c1.5,0.2,3,0.7,4.3,1.4
			c1.3,0.6,2.4,1.5,3.3,2.6c1,1.3,1.4,2.9,1.1,4.5c-0.1,0.3,0.4,0.4,0.4,0.1c0.3-1.4,0-2.9-0.7-4.1c-0.7-1.2-1.8-2.2-3-2.9
			c-2.7-1.7-6-2.4-9.2-1.8c-1.9,0.3-3.9,0.2-5.8-0.1C120.3,116.3,120.2,116.7,120.4,116.8"/>
		<path id="Path_1072" d="M125.7,117.3c2.8,1.1,5.5,2.5,8.1,4c0.1,0.1,0.2,0,0.3-0.1c0.1-0.1,0-0.2-0.1-0.3c-2.7-1.5-5.4-2.9-8.2-4
			C125.6,116.8,125.5,117.2,125.7,117.3"/>
		<path id="Path_1073" d="M116,118.8c1.7-0.5,3.4-0.8,5.2-0.9c0.3,0,0.3-0.5,0-0.4c-1.8,0.1-3.6,0.4-5.3,0.9
			C115.6,118.4,115.7,118.8,116,118.8"/>
		<path id="Path_1074" d="M121.4,117.8c0.1,0,0.2-0.1,0.2-0.2c0-0.1-0.1-0.2-0.2-0.2c-0.1,0-0.2,0.1-0.2,0.2
			C121.2,117.7,121.3,117.8,121.4,117.8"/>
		<path id="Path_1075" d="M114.6,117.3c-1.2,1.9-2.4,3.8-3.6,5.7c-1.3,1.8-2.6,3.6-4,5.3c-0.2,0.2,0.1,0.5,0.3,0.3
			c1.4-1.7,2.7-3.5,4-5.3c1.3-1.9,2.5-3.8,3.7-5.8C115.1,117.2,114.8,117,114.6,117.3"/>
		<path id="Path_1076" d="M117.4,116.2l-8.1,11.4l-2.3,3.2c-0.2,0.2,0.2,0.5,0.4,0.2l8.1-11.4l2.3-3.2
			C117.9,116.2,117.5,115.9,117.4,116.2"/>
		<path id="Path_1077" d="M131.3,65.4c0.7,1.7,1.5,3.3,2.3,5c0.1,0.3,0.5,0,0.4-0.2c-0.8-1.6-1.6-3.2-2.2-4.9
			C131.6,65,131.2,65.1,131.3,65.4"/>
		<path id="Path_1078" d="M136.4,77.5c0.9,1.4,1.4,3.1,1.4,4.7c0.2,2,0.4,3.9,0.6,5.9c0,0.3,0.5,0.3,0.4,0c-0.2-2-0.4-4.1-0.6-6.1
			c0-1.7-0.5-3.3-1.4-4.8C136.6,77,136.2,77.3,136.4,77.5"/>
		<path id="Path_1079" d="M131.5,65.7c2.4,0.8,4.6,2.2,6.2,4.2c0.2,0.2,0.5-0.1,0.3-0.3c-1.7-2-3.9-3.5-6.4-4.3
			C131.4,65.2,131.2,65.6,131.5,65.7"/>
		<path id="Path_1080" d="M140.8,78.4c0.6,3.1-1.1,6.1-2.3,8.8c-0.1,0.3,0.3,0.5,0.4,0.2c1.3-2.9,2.9-5.9,2.3-9.2
			C141.2,78,140.8,78.1,140.8,78.4"/>
		<path id="Path_1081" d="M139.9,91.9c1.4,0.3,2.7,0.9,3.7,1.9c0.8,0.9,1.5,1.9,2.1,3c1.2,2.1,2.4,4.3,4.7,5.4
			c1.5,0.6,3,0.9,4.6,1.1c0.3,0,0.3-0.4,0-0.4c-1.4-0.1-2.8-0.4-4.2-0.9c-1.2-0.5-2.2-1.3-2.9-2.4c-1.4-1.9-2.2-4.2-3.9-5.9
			c-1.1-1.1-2.4-1.8-3.9-2.1C139.7,91.4,139.6,91.8,139.9,91.9"/>
		<path id="Path_1082" d="M140.1,91.7c2.7-1.2,6.1-2.2,8.9-0.6c1.2,0.8,2.2,1.9,2.9,3.2c0.7,1.2,1.2,2.5,1.5,3.8
			c0.4,1.5,0.7,3.1,0.9,4.6c0,0.3,0.5,0.2,0.4-0.1c-0.3-2.9-1.1-5.8-2.4-8.4c-0.7-1.3-1.6-2.4-2.8-3.3c-1.3-0.8-2.8-1.2-4.4-1.1
			c-1.8,0.2-3.6,0.7-5.3,1.5C139.7,91.4,139.9,91.8,140.1,91.7"/>
		<path id="Path_1083" d="M144.7,92.6c1.8,0.1,3.1,1.6,3.9,3c0.8,1.6,1.8,3,3.1,4.2c0.2,0.2,0.5-0.2,0.2-0.4
			c-1.5-1.1-2.2-2.9-3.2-4.5c-0.8-1.5-2.3-2.5-4-2.8C144.4,92.1,144.4,92.6,144.7,92.6"/>
		<path id="Path_1084" d="M149.4,60.4c0.2,0.2-0.3,0.8-0.4,1c-0.2,0.3-0.3,0.7-0.5,1.1c-0.3,0.8-0.6,1.6-0.8,2.4
			c-0.6,2.5-0.7,5.1-0.2,7.6c0.1,0.3,0.5,0.2,0.4-0.1c-0.7-3.4-0.3-6.9,1.1-10.1c0.2-0.4,0.4-0.8,0.6-1.2c0.1-0.3,0.3-0.7,0-0.9
			C149.5,59.9,149.2,60.2,149.4,60.4"/>
		<path id="Path_1085" d="M153.3,61.2c0.7,0.9,1.1,1.9,1.3,3c0.4,1.1,0.6,2.3,0.8,3.5c0.3,2.2,0.1,4.4-0.6,6.5c-0.4,1.1-1,2.1-1.8,3
			c-0.2,0.2,0.1,0.5,0.3,0.3c1.5-1.6,2.4-3.7,2.6-5.8c0.3-2.5,0-4.9-0.8-7.3c-0.2-1.3-0.8-2.5-1.5-3.5
			C153.4,60.7,153.1,61,153.3,61.2"/>
		<path id="Path_1086" d="M148,51.6c0.5,0.8,0.7,1.7,0.8,2.6c0,0.3,0.5,0.3,0.4,0c-0.1-1-0.4-1.9-0.9-2.8c-0.1-0.1-0.2-0.1-0.3-0.1
			C148,51.4,148,51.5,148,51.6"/>
		<path id="Path_1087" d="M148.2,51.7c1.3,0.6,2.4,1.6,3,3c0.1,0.1,0.2,0.1,0.3,0.1c0.1-0.1,0.1-0.2,0.1-0.3
			c-0.6-1.4-1.8-2.6-3.3-3.2c-0.1,0-0.2,0-0.3,0.2C148,51.5,148.1,51.6,148.2,51.7"/>
		<path id="Path_1088" d="M163.7,47.6c0.1,1.9,1.5,3.4,2.2,5.1c0.4,1,0.5,2.1,0.4,3.2c-0.1,1.1-0.1,2.2-0.3,3.3
			c-0.1,1.2-0.5,2.3-1.1,3.4c-0.1,0.1,0,0.2,0.1,0.3c0.1,0.1,0.2,0,0.3-0.1c0.9-1.9,1.4-4,1.4-6.2c0.1-1.1,0.1-2.3-0.2-3.4
			c-0.3-0.9-0.7-1.8-1.2-2.6c-0.6-0.9-1-1.9-1.1-3C164.1,47.3,163.6,47.3,163.7,47.6"/>
		<path id="Path_1089" d="M163.6,47.4c-1,1.8-2,3.6-2.9,5.4c-0.5,0.8-0.8,1.7-1.1,2.6c-0.2,0.9-0.2,1.9-0.1,2.8
			c0,0.3,0.5,0.2,0.4-0.1c-0.2-1-0.1-1.9,0.2-2.9c0.3-0.9,0.6-1.7,1.1-2.5c0.9-1.7,1.9-3.5,2.8-5.2
			C164.1,47.4,163.7,47.1,163.6,47.4"/>
		<path id="Path_1090" d="M159.3,62.9c0,1.9-0.1,3.8-0.4,5.7c0,0.3,0.4,0.4,0.4,0.1c0.3-1.9,0.5-3.9,0.4-5.8c0-0.1-0.1-0.2-0.2-0.2
			C159.4,62.7,159.3,62.8,159.3,62.9"/>
		<path id="Path_1091" d="M163.2,51.7c0.1,2.4-0.2,4.8-0.9,7.1c0,0.1,0,0.2,0.2,0.3c0.1,0,0.2,0,0.3-0.2c0.6-2.3,0.9-4.8,0.9-7.2
			c0-0.1-0.1-0.2-0.2-0.2C163.3,51.5,163.2,51.6,163.2,51.7"/>
		<path id="Path_1092" d="M166.7,53.9c1.5-0.9,3.2-1.5,4.9-1.9c1.5-0.1,3-0.7,4.2-1.5c0.2-0.2-0.1-0.5-0.3-0.3
			c-1.2,1-2.9,1.1-4.3,1.4c-1.7,0.4-3.2,1-4.7,1.9c-0.1,0.1-0.1,0.2-0.1,0.3C166.4,53.9,166.6,54,166.7,53.9"/>
		<path id="Path_1093" d="M175.5,50.2c-0.8,2.4,0.6,4.8,0.3,7.3c-0.2,1.2-0.7,2.4-1.4,3.5c-0.6,1-1.3,2-2,2.9
			c-0.7,0.9-1.5,1.6-2.4,2.2c-1,0.6-2.1,0.9-3.2,0.8c-1.2-0.2-2.5-0.2-3.7,0c-1.2,0.4-2.2,1.1-3,2.1c-2.1,2.1-4.1,4.3-5.9,6.7
			c-0.2,0.2,0.2,0.5,0.4,0.2c1.6-2.2,3.4-4.2,5.3-6.1c0.8-1,1.9-1.8,3-2.4c1.3-0.2,2.5-0.3,3.8,0c1.1,0.1,2.2-0.2,3.2-0.7
			c0.9-0.5,1.7-1.2,2.4-2.1c0.7-0.8,1.3-1.7,1.9-2.7c0.7-1,1.3-2.1,1.7-3.3c0.3-1.3,0.3-2.7,0-4.1c-0.4-1.4-0.4-2.8-0.1-4.1
			C176,50.1,175.6,49.9,175.5,50.2"/>
		<path id="Path_1094" d="M163.6,64.4c-0.4,0.6-0.9,1.1-1.6,1.4c-0.6,0.4-1.2,0.8-1.7,1.3c-1.1,1-1.9,2.3-2.9,3.4
			c-0.5,0.7-1.1,1.2-1.8,1.8c-0.2,0.2,0,0.6,0.2,0.4c1.2-1,2.2-2.1,3.1-3.3c0.9-1.2,2-2.3,3.3-3.2c0.7-0.3,1.4-0.9,1.8-1.6
			C164.1,64.4,163.7,64.1,163.6,64.4"/>
		<path id="Path_1095" d="M174.3,52c-2.5,3.2-5.1,6.3-7.7,9.4c-0.2,0.2,0.1,0.5,0.3,0.3c2.6-3.1,5.2-6.2,7.7-9.4
			C174.8,52.1,174.5,51.8,174.3,52"/>
		<path id="Path_1096" d="M153.9,77c1.7-0.4,3.5-0.4,5.2,0.1c1.7,0.4,3.2,1.1,4.9,1.5c3.2,0.9,6.5,0.9,9.7-0.1
			c1.6-0.8,3.3-1.3,5.1-1.6c0.3,0,0.3-0.5,0-0.4c-1.6,0.2-3.1,0.7-4.5,1.4c-1.6,0.6-3.2,1-4.9,1.1c-1.7,0-3.4-0.2-5-0.6
			c-1.7-0.4-3.3-1-4.9-1.5c-1.8-0.5-3.8-0.6-5.6-0.1C153.5,76.6,153.6,77,153.9,77"/>
		<path id="Path_1097" d="M160.3,69.7c5.3-1.1,10.5,1.3,14.8,4.2c1.2,0.8,2.4,1.8,3.6,2.7c0.2,0.2,0.5-0.1,0.3-0.3
			c-4.2-3.3-8.8-6.5-14.3-7.2c-1.5-0.2-3-0.1-4.5,0.2C159.9,69.3,160.1,69.7,160.3,69.7"/>
		<path id="Path_1098" d="M158.4,74.6c1.9-0.3,3.9-0.5,5.9-0.5c2,0.1,3.9,0.4,5.8,0.8c1.1,0.3,2.2,0.6,3.3,0.8c0.1,0,0.2,0,0.3-0.2
			s0-0.2-0.2-0.3c-1.9-0.6-3.8-1-5.8-1.4c-1.9-0.3-3.9-0.4-5.9-0.2c-1.1,0.1-2.2,0.2-3.4,0.4C158.1,74.2,158.1,74.6,158.4,74.6"/>
		<path id="Path_1099" d="M146.5,79.6c-2.3,3.3-4.9,6.4-7.9,9.1c-0.2,0.2,0.1,0.5,0.3,0.3c3-2.7,5.7-5.8,8-9.2
			C147.1,79.5,146.7,79.3,146.5,79.6"/>
		<path id="Path_1100" d="M139.9,90.6c0.3-0.8,0.8-1.5,1.5-2.1c0.7-0.7,1.5-1.4,2.2-2.1c1.4-1.4,2.9-2.8,4.3-4.1
			c0.7-0.7,1.6-1.3,2.5-1.8c0.3-0.1,0-0.5-0.2-0.4c-1.6,1-3.1,2.2-4.4,3.6c-1.5,1.5-3.1,2.9-4.6,4.4c-0.7,0.6-1.3,1.5-1.7,2.4
			C139.3,90.8,139.8,90.9,139.9,90.6"/>
		<path id="Path_1101" d="M93.5,100.3c1.9,3.5,3.3,7.3,4.2,11.1c1.1,4.1,2,8.3,3,12.4c0.7,2.3,1.1,4.7,1.1,7.1c0,0.3,0.4,0.3,0.4,0
			c0-2.1-0.3-4.3-0.9-6.3c-0.5-2.2-1-4.3-1.6-6.5c-1-4-1.8-8.1-3.2-12c-0.7-2.1-1.6-4.2-2.7-6.2c-0.1-0.1-0.2-0.1-0.3-0.1
			C93.5,100.1,93.5,100.2,93.5,100.3"/>
		<path id="Path_1102" d="M94.9,99.7c1.7,3.8,3.1,7.7,4.3,11.7c1.2,4,2.1,8,2.7,12.1c0.4,2.3,0.7,4.6,0.9,7c0,0.3,0.5,0.3,0.4,0
			c-0.4-4.2-1-8.3-1.9-12.4c-0.9-4.1-2-8.1-3.5-12.1c-0.8-2.2-1.7-4.4-2.6-6.5C95.2,99.2,94.8,99.4,94.9,99.7"/>
		<path id="Path_1103" d="M90.8,102.1c-0.4,1.2-0.6,2.5-0.6,3.8c0.1,1.1,0.3,2.2,0.8,3.3c0.9,2.2,2.5,4.1,3.3,6.3
			c0.5,1.3,0.7,2.7,0.4,4c-0.1,0.3,0.4,0.4,0.4,0.1c1.1-5-3.9-8.4-4.5-13.1c-0.1-1.5,0.1-2.9,0.5-4.3c0-0.1,0-0.2-0.2-0.3
			C91,101.9,90.8,102,90.8,102.1"/>
		<path id="Path_1104" d="M105.8,89.5c-0.3,1.5-0.3,3.1-0.2,4.6c0.1,1.3,0,2.7-0.3,4c-0.5,2.5-1.6,4.8-3.2,6.8
			c-0.9,1.1-2,2.1-3.1,2.9c-0.2,0.2,0,0.6,0.2,0.4c4.3-3,6.8-7.9,6.9-13.2c-0.2-1.8-0.1-3.6,0.1-5.4
			C106.3,89.3,105.8,89.2,105.8,89.5"/>
		<path id="Path_1105" d="M95,115c-0.2-0.9-0.1-1.9,0.4-2.7c0.2-0.4,0.5-0.8,0.8-1.2c0.2-0.2,0.3-0.4,0.5-0.6
			c0.1-0.2,0.3-0.3,0.5-0.4c0.3-0.1,0.2-0.5-0.1-0.4c-0.4,0.2-0.8,0.6-1.1,1c-0.4,0.4-0.7,0.9-1,1.4c-0.6,0.9-0.7,2-0.5,3.1
			c0,0.1,0.2,0.2,0.3,0.2C94.9,115.2,95,115.1,95,115"/>
		<path id="Path_1106" d="M95.6,105.4c-1,1.7-1.5,3.7-1.3,5.7c0,0.1,0.1,0.2,0.2,0.2c0.1,0,0.2-0.1,0.2-0.2
			c-0.1-1.9,0.3-3.8,1.3-5.5C96.2,105.4,95.8,105.1,95.6,105.4"/>
		<path id="Path_1107" d="M104.3,90.7c-1.7,3.4-3.6,6.8-5.6,10c-0.2,0.2,0.2,0.5,0.4,0.2c2-3.3,3.9-6.6,5.6-10
			C104.8,90.6,104.5,90.4,104.3,90.7"/>
		<path id="Path_1108" d="M104.3,90l1.5-0.2c0.1,0,0.2-0.1,0.2-0.2c0-0.1-0.1-0.2-0.2-0.2l-1.5,0.2c-0.1,0-0.2,0.1-0.2,0.2
			C104.1,89.9,104.2,90,104.3,90"/>
		<path id="Path_1109" d="M107.6,85.9c-2,1.6-3.8,3.4-5.4,5.3c-0.8,1-1.5,2-2.1,3.1c-0.7,1.2-1.2,2.6-1.7,3.8
			c-0.6,1.5-1.2,3-1.8,4.5c-0.1,0.3,0.3,0.4,0.4,0.1c1-2.6,2-5.2,3.3-7.7c1.2-2.2,2.7-4.3,4.5-6c1-1,2.1-1.9,3.1-2.8
			C108.2,86.1,107.9,85.8,107.6,85.9"/>
		<path id="Path_1110" d="M108,85.6c-3.6,0-7.2,0.9-10.4,2.6c-1.6,0.8-3,1.8-4.3,3c-1.3,1.1-2.1,2.6-2.4,4.2c-0.1,0.4,0,0.9,0.2,1.3
			c0.2,0.4,0.5,0.7,0.9,1c1,0.7,2,1.4,3,2c0.2,0.2,0.5-0.2,0.2-0.4l-2.4-1.7c-0.4-0.2-0.8-0.5-1.1-0.8c-0.3-0.3-0.4-0.7-0.4-1.1
			c0.2-1.6,1-3.1,2.2-4.2c2.5-2.3,5.5-4,8.8-4.8c1.8-0.5,3.8-0.8,5.7-0.8c0.1,0,0.2-0.1,0.2-0.2C108.2,85.7,108.1,85.6,108,85.6"/>
		<path id="Path_1111" d="M70.3,93c1.1-0.7,2.5-0.9,3.8-0.7c0.7,0.1,1.3,0.1,2,0c0.8-0.1,1.5-0.2,2.2-0.5c1.5-0.6,3.1-0.9,4.7-1.1
			c1.5-0.1,3,0,4.4,0.5c1.5,0.5,2.7,1.5,3.7,2.7c0.2,0.2,0.6,0,0.4-0.2c-1.8-2.4-4.7-3.7-7.6-3.5c-1.7,0.1-3.4,0.4-5,1
			c-0.8,0.3-1.6,0.5-2.4,0.6c-0.7,0.1-1.5,0.1-2.2,0.1c-1.5-0.1-3.1-0.2-4.3,0.8C69.7,92.9,70,93.2,70.3,93"/>
		<path id="Path_1112" d="M69.8,93c2.1,3.2,6.4,3.3,9.7,4.3c3.6,1.2,6.7,3.3,10.2,4.7c2,0.6,3.9,1.4,5.7,2.4
			c0.2,0.2,0.5-0.2,0.2-0.4c-1.5-0.9-3.2-1.7-4.9-2.1c-1.7-0.7-3.4-1.4-5.1-2.3c-1.6-0.9-3.2-1.7-4.9-2.3c-1.8-0.6-3.7-1.1-5.6-1.5
			c-1.9-0.4-3.6-1.4-4.8-3C70,92.6,69.7,92.8,69.8,93"/>
		<path id="Path_1113" d="M76.3,93.6c1.1,1.4,3,1.7,4.7,2c2.1,0.5,4.2,1.1,6.1,2c1.1,0.5,2.2,1.1,3.2,1.7c0.1,0.1,0.2,0,0.3-0.1
			c0.1-0.1,0-0.2-0.1-0.3c-1.8-1.1-3.7-2-5.7-2.7c-1-0.3-2-0.6-3-0.9c-0.9-0.2-1.8-0.4-2.7-0.6c-1-0.2-1.8-0.7-2.5-1.5
			C76.5,93.1,76.2,93.4,76.3,93.6"/>
		<path id="Path_1114" d="M85.1,84.6c5.6-2.9,12.1-3.6,18.2-2.1c1.8,0.5,3.6,1.1,5.3,1.9c0.3,0.1,0.5-0.3,0.2-0.4
			c-1.6-0.7-3.2-1.3-4.9-1.8c-1.5-0.4-3.1-0.7-4.7-0.8c-3.2-0.3-6.4,0-9.5,0.9c-1.7,0.5-3.4,1.1-5,2C84.6,84.3,84.9,84.7,85.1,84.6"
			/>
		<path id="Path_1115" d="M85.1,84.7c5.2,0,10.5-1.2,15.7,0c1.3,0.3,2.6,0.8,3.8,1.5c0.1,0.1,0.2,0,0.3-0.1c0.1-0.1,0-0.2-0.1-0.3
			c-4.5-2.6-9.9-2.2-14.9-1.8c-1.6,0.1-3.2,0.2-4.7,0.2c-0.1,0-0.2,0.1-0.2,0.2C84.9,84.6,85,84.7,85.1,84.7"/>
		<path id="Path_1116" d="M101.6,60.5c0.8,2.9,0.4,6-1,8.7c-1.4,2.6-3,5.2-4.8,7.6c-0.9,1.4-1.6,2.9-2.2,4.5
			c-0.1,0.3,0.3,0.4,0.4,0.1c2-5.8,7.3-10,8.3-16.1c0.3-1.6,0.2-3.3-0.3-4.8C102,60.1,101.5,60.2,101.6,60.5"/>
		<path id="Path_1117" d="M92.4,84.3c-0.6,1.4-1.1,2.8-1.4,4.3c0,0.1,0,0.2,0.2,0.3c0.1,0,0.2,0,0.3-0.2c0.3-1.4,0.8-2.8,1.4-4.2
			C92.9,84.3,92.6,84,92.4,84.3"/>
		<path id="Path_1118" d="M101.5,60.2c-1.2,1.5-2.4,3-3.7,4.5c-1.2,1.4-2.6,2.7-3.9,4c-2.4,2.4-4.7,5-5.2,8.5c-0.3,1.7,0.1,3.5,1,5
			c0.2,0.2,0.6,0,0.4-0.2c-1.9-2.7-1-6.4,0.7-8.9c1-1.4,2.1-2.7,3.3-3.9c1.3-1.3,2.5-2.5,3.7-3.8c1.4-1.6,2.8-3.2,4-4.8
			C102.1,60.2,101.7,60,101.5,60.2"/>
		<path id="Path_1119" d="M90.6,84.7c0.4,0.8,0.6,1.6,0.6,2.5c0,0.1,0.1,0.2,0.2,0.2c0.1,0,0.2-0.1,0.2-0.2c0-0.9-0.3-1.9-0.7-2.7
			C90.9,84.2,90.5,84.5,90.6,84.7"/>
		<path id="Path_1120" d="M101.4,66.5c-1.5,2.1-4.1,3.1-6,4.9c-1.9,1.8-3.2,4-4,6.4c-0.4,1.4-0.6,2.8-0.7,4.2c0,0.1,0.1,0.2,0.2,0.2
			c0.1,0,0.2-0.1,0.2-0.2c0-2.6,0.7-5.1,2.1-7.2c0.7-1.1,1.4-2.1,2.4-3c0.9-0.8,2-1.6,3-2.3c1.2-0.7,2.3-1.7,3.1-2.8
			C102,66.5,101.6,66.3,101.4,66.5"/>
		<path id="Path_1121" d="M77.6,64.4c2-0.1,4.1,0.1,6.1,0.4c1,0.1,2,0.3,2.9,0.6c0.5,0.1,0.9,0.3,1.2,0.6c0.3,0.3,0.5,0.7,0.5,1.1
			c0.1,0.8,0.1,1.7-0.1,2.5c-0.2,0.8-0.5,1.7-0.8,2.5c-0.7,1.6-1.2,3.2-1.5,4.9c-0.1,2.1,0.4,4.2,1.4,6.1c0.1,0.3,0.5,0,0.4-0.2
			c-1-1.8-1.4-3.7-1.4-5.7c0.3-1.7,0.8-3.4,1.5-5c0.7-1.6,1-3.3,0.9-5c-0.1-0.8-0.7-1.5-1.4-1.8c-0.9-0.3-1.9-0.6-2.8-0.7
			c-2.3-0.4-4.7-0.6-7-0.5C77.3,64,77.3,64.5,77.6,64.4"/>
		<path id="Path_1122" d="M88.5,84.7c0.8,1.1,1.4,2.2,2,3.4c0.6,1.3,1.2,2.5,1.8,3.8c0.1,0.3,0.5,0,0.4-0.2
			c-0.6-1.3-1.2-2.5-1.8-3.8c-0.6-1.2-1.2-2.4-2-3.4C88.7,84.2,88.3,84.5,88.5,84.7"/>
		<path id="Path_1123" d="M87.3,84.7l4.4,8.4c0.1,0.3,0.5,0,0.4-0.2l-4.4-8.4C87.6,84.2,87.2,84.5,87.3,84.7"/>
		<path id="Path_1124" d="M77.5,64.2c-1.3,1.1-2.3,2.5-3,4.1c-0.4,0.7-0.5,1.6-0.4,2.4c0.2,0.7,0.6,1.2,1.1,1.7
			c0.6,0.5,1.2,0.9,1.8,1.3c0.7,0.4,1.4,0.9,2.1,1.4c3.1,2.2,5.7,4.8,7.9,7.8c0.2,0.2,0.6,0,0.4-0.2c-2-2.7-4.3-5.1-6.9-7.2
			c-0.7-0.5-1.3-1-2-1.5c-0.6-0.4-1.3-0.8-2-1.2c-0.6-0.4-1.2-0.9-1.6-1.5c-0.4-0.7-0.5-1.5-0.3-2.2c0.6-1.8,1.7-3.4,3.1-4.7
			C78,64.3,77.7,64,77.5,64.2"/>
		<path id="Path_1125" d="M78.5,65.9c1,1.4,2,2.8,2.9,4.3c1,1.4,1.7,3,1.9,4.6c0,0.3,0.5,0.3,0.4,0c-0.3-1.7-0.9-3.3-1.9-4.7
			c-0.9-1.5-1.9-3.1-3-4.5C78.7,65.5,78.3,65.7,78.5,65.9"/>
		<path id="Path_1126" d="M86.5,78.3c0.7,0,1.4,0.2,2,0.6c0.1,0.1,0.2,0,0.3-0.1c0.1-0.1,0-0.2-0.1-0.3c-0.6-0.4-1.4-0.6-2.2-0.6
			c-0.1,0-0.2,0.1-0.2,0.2C86.3,78.2,86.4,78.3,86.5,78.3"/>
		<path id="Path_1127" d="M75.5,79.2c1.3-0.2,2.6-0.4,3.9-0.6c1.3-0.2,2.6-0.3,3.9-0.2c0.3,0,0.3-0.4,0-0.4c-1.3-0.1-2.7,0-4,0.2
			c-1.3,0.2-2.6,0.4-3.9,0.6C75,78.8,75.2,79.2,75.5,79.2"/>
		<path id="Path_1128" d="M75.4,82.8c1.4,1.2,3.1,2.1,4.8,2.6c1.9,0.6,3.9,1.1,5.9,1.7c1.1,0.3,2.1,0.7,3.1,1.2
			c0.1,0.1,0.2,0,0.3-0.1c0.1-0.1,0-0.2-0.1-0.3C87.7,87,85.9,86.4,84,86c-1.9-0.4-3.8-1.1-5.6-1.8c-1-0.5-1.8-1-2.7-1.7
			C75.5,82.3,75.2,82.6,75.4,82.8"/>
		<path id="Path_1129" d="M77.4,80.3c2.4,0.1,4.6,1,6.4,2.6c0.2,0.2,0.5-0.1,0.3-0.3c-1.8-1.7-4.2-2.7-6.7-2.8
			C77.1,79.8,77.1,80.2,77.4,80.3"/>
		<path id="Path_1130" d="M89.7,46.3c-1.6,1.6-2.5,3.8-2.6,6c-0.1,2.6-0.1,5.2,0.1,7.8c0.1,1.6-0.1,3.2-0.6,4.8
			c-0.1,0.3,0.3,0.4,0.4,0.1c1.6-5-0.7-10.3,1-15.2c0.4-1.2,1.1-2.3,2-3.2C90.2,46.4,89.9,46.1,89.7,46.3"/>
		<path id="Path_1131" d="M89.7,45.9c-2.1,1.7-4,3.7-5.6,5.9c-0.8,1.1-1.6,2.3-2.4,3.4c-0.9,1.1-1.5,2.4-2,3.8
			c-0.4,1.6-0.5,3.3-0.4,4.9c0,0.1,0.1,0.2,0.2,0.2c0.1,0,0.2-0.1,0.2-0.2c-0.1-1.4,0-2.9,0.2-4.3c0.3-1.4,1-2.7,1.8-3.8
			c1.4-2.2,3-4.4,4.8-6.4c1-1.1,2.1-2.2,3.3-3.1C90.1,46.1,89.9,45.7,89.7,45.9"/>
		<path id="Path_1132" d="M87.2,51.6c-1.2,2-2.3,4.1-3.5,6.1c-0.6,0.9-1,1.9-1.4,2.9c-0.3,1-0.5,2.1-0.6,3.2c0,0.3,0.4,0.4,0.4,0.1
			c0.1-1.1,0.3-2.1,0.6-3.1c0.4-1,0.9-2,1.4-3l3.4-6c0.1-0.1,0-0.2-0.1-0.3C87.4,51.5,87.3,51.5,87.2,51.6"/>
		<path id="Path_1133" d="M79.1,43.2c-0.3,0.7-0.4,1.4-0.4,2.2c0,0.8,0.1,1.5,0.3,2.2c0.9,3,0.5,6.1-1,8.8c-0.7,1.2-1.2,2.5-1.6,3.9
			c-0.3,1.3,0,2.7,0.9,3.8c0.2,0.2,0.5-0.1,0.3-0.3c-0.8-1-1-2.3-0.7-3.5c0.3-1.3,0.9-2.6,1.5-3.8c0.7-1.3,1.1-2.7,1.4-4.1
			c0.2-1.4,0.2-2.8-0.1-4.2c-0.2-0.8-0.4-1.7-0.5-2.5c-0.1-0.8,0.1-1.7,0.4-2.5C79.6,43.1,79.2,43,79.1,43.2"/>
		<path id="Path_1134" d="M79.2,43.2c-2.6,1.5-4.7,3.8-6,6.4c-0.7,1.4-1.2,2.8-1.4,4.3c-0.4,1.6-0.1,3.4,0.7,4.8
			c0.9,1.4,2.3,2.5,3.8,3.2c0.3,0.1,0.5-0.3,0.2-0.4C75.1,61,74,60,73.1,58.9c-0.9-1.3-1.3-3-1-4.6c0.7-4.5,3.4-8.4,7.3-10.7
			c0.1-0.1,0.1-0.2,0.1-0.3C79.4,43.2,79.3,43.1,79.2,43.2"/>
		<path id="Path_1135" d="M78.3,44.2c-1.1,2.3-2.1,4.6-2.7,7.1c-0.3,1.2-0.6,2.5-0.8,3.8c-0.2,1.1-0.3,2.1-0.2,3.2
			c0.1,1.2,0.5,2.3,1.2,3.2c0.2,0.2,0.5-0.1,0.3-0.3c-1.4-1.6-1.2-3.9-0.9-5.9c0.6-3.7,1.8-7.4,3.5-10.8
			C78.8,44.2,78.5,44,78.3,44.2"/>
		<path id="Path_1136" d="M61.1,57.7c0.8,0.4,1.8,0.7,2.7,0.8c1.1,0.1,2.2,0,3.2,0c2.1,0.2,4.1,0.7,6.1,1.5c0.3,0.1,0.4-0.3,0.1-0.4
			c-1.9-0.7-3.9-1.2-5.9-1.5c-1-0.1-2.1,0-3.1,0c-1,0-2-0.3-2.9-0.7C61.1,57.2,60.8,57.6,61.1,57.7"/>
		<path id="Path_1137" d="M60.8,57.6c0.6,0.8,1.5,1.4,2.6,1.5c1.3,0.3,2.6,0.5,3.8,0.7c2.5,0.3,4.9,1,7,2.2c1.1,0.6,2,1.5,2.7,2.6
			c0.2,0.2,0.5,0,0.4-0.2c-2.8-4.3-8.4-4.6-12.9-5.4c-1.2-0.1-2.4-0.6-3.3-1.5C61.1,57.2,60.7,57.4,60.8,57.6"/>
		<path id="Path_1138" d="M59.4,63.6c1,0.1,2.1-0.1,3-0.5c0.5-0.2,1-0.3,1.5-0.4c0.6-0.1,1.2-0.1,1.8,0c1.2,0.2,2.4,0.2,3.5,0.4
			c1.1,0.2,2.2,0.6,3.2,1.1c1.2,0.5,2.3,1.1,3.4,1.7c0.3,0.1,0.5-0.3,0.2-0.4c-2-1.1-4.1-2-6.2-2.7c-1.2-0.2-2.3-0.4-3.5-0.5
			c-0.6-0.1-1.3-0.2-1.9-0.2c-0.5,0-1,0.1-1.5,0.3c-1.1,0.5-2.3,0.7-3.5,0.7C59.1,63.1,59.2,63.5,59.4,63.6"/>
		<path id="Path_1139" d="M60.8,63.5c2.7,2.9,6.2,4.8,10.1,5.6c1.1,0.2,2.2,0.4,3.3,0.4c0.3,0,0.3-0.4,0-0.4
			c-3.8-0.1-7.5-1.4-10.6-3.7c-0.9-0.7-1.7-1.4-2.4-2.2C60.9,63,60.6,63.3,60.8,63.5"/>
		<path id="Path_1140" d="M76.3,97.1c1.9,1.7,3.6,3.6,5.1,5.7c1.6,2.2,3.1,4.5,4.7,6.7c3.2,4.6,6.5,9.3,9.8,13.8
			c1.9,2.6,3.7,5.2,5.6,7.7c0.2,0.2,0.6,0,0.4-0.2c-3.4-4.6-6.7-9.2-10-13.9c-3.2-4.6-6.4-9.2-9.6-13.8c-1.6-2.4-3.5-4.5-5.6-6.4
			C76.3,96.6,76,96.9,76.3,97.1"/>
		<path id="Path_1141" d="M74.1,96.8c3.5,4.2,6.8,8.5,9.8,13c3.3,4.6,6.5,9.2,9.8,13.7c1.8,2.5,3.6,5.1,5.4,7.7
			c0.2,0.2,0.6,0,0.4-0.2c-3.2-4.6-6.5-9.2-9.7-13.7c-3.3-4.5-6.5-9.1-9.8-13.6c-1.8-2.4-3.6-4.8-5.6-7.1
			C74.2,96.3,73.9,96.6,74.1,96.8"/>
		<path id="Path_1142" d="M77.7,123.8c1.5-1,3.2-1.8,4.9-2.4c1.7-0.7,3.6-1.1,5.5-1.1c1.1,0.1,2.3,0.3,3.4,0.4c0.3,0,0.3-0.4,0-0.4
			c-1-0.1-2-0.3-3-0.4c-1-0.1-2,0-2.9,0.2c-1.8,0.4-3.6,1-5.2,1.8c-1,0.5-1.9,1-2.8,1.6C77.2,123.6,77.5,124,77.7,123.8"/>
		<path id="Path_1143" d="M78.3,110.9c0.1-1.1,1-2,2.1-2.3c1.1-0.1,2.2,0.5,2.8,1.4c0.6,1,1.2,2,1.7,3.1c0.7,1.2,1.4,2.3,2.3,3.3
			c1,1.2,2,2.2,3.2,3.2c0.2,0.2,0.5-0.1,0.3-0.3c-2.3-1.8-4.2-4.1-5.6-6.7c-1-1.8-2.2-5-4.9-4.4c-1.3,0.3-2.2,1.4-2.3,2.7
			C77.9,111.2,78.3,111.2,78.3,110.9"/>
		<path id="Path_1144" d="M78.8,116.5c0.9-1.3,2.5-1.9,4-1.5c1.6,0.6,3,1.5,4.1,2.8c0.1,0.1,0.2,0.1,0.3,0s0.1-0.2,0-0.3
			c-1.2-1.4-2.8-2.5-4.5-3c-1.6-0.3-3.3,0.4-4.2,1.8C78.3,116.5,78.7,116.7,78.8,116.5"/>
		<path id="Path_1145" d="M77.8,110c-2.5,5-1.5,10.7-3,15.9c-0.4,1.4-1,2.8-1.9,4c-0.2,0.2,0.2,0.5,0.4,0.2
			c3.2-4.5,2.6-10.3,3.5-15.4c0.3-1.5,0.7-3,1.4-4.5C78.4,110,78,109.8,77.8,110"/>
		<path id="Path_1146" d="M77.8,110.3c-0.1,3.1-0.3,6.2-0.4,9.2c-0.1,2.7,0,5.8-1.6,8.2c-0.7,1.1-1.8,2-3,2.3
			c-0.1,0-0.2,0.2-0.2,0.3c0,0.1,0.2,0.2,0.3,0.2l0,0c2.5-0.6,3.9-3.1,4.4-5.4c0.3-1.5,0.4-3,0.4-4.5c0.1-1.6,0.2-3.2,0.2-4.8
			l0.3-5.5C78.3,110,77.8,110,77.8,110.3"/>
		<path id="Path_1147" d="M78.4,110C78.4,110,78.4,110,78.4,110C78.4,110,78.4,110,78.4,110l0-0.1c0,0,0,0,0-0.1c0,0,0,0,0-0.1l0,0
			l0,0c0,0,0,0,0,0c0,0,0,0,0-0.1s0,0,0-0.1c0,0,0,0,0,0l0,0c0,0,0.1-0.1,0.1-0.1l0,0c0,0,0,0,0,0c0,0,0,0,0.1,0c0,0,0,0,0.1,0
			c0,0,0,0,0,0l0,0l0,0c0,0,0.1,0,0.1,0c0.1,0,0.2-0.2,0.2-0.3c0-0.1-0.2-0.2-0.3-0.2c-0.5,0.1-0.9,0.6-0.9,1.1
			c0,0.1,0.1,0.2,0.2,0.2C78.3,110.2,78.4,110.1,78.4,110C78.4,110,78.4,110,78.4,110"/>
		<path id="Path_1148" d="M53.6,118.2c1.5-2.1,1.6-4.8,2-7.3c0.3-2.5,1.2-4.8,2.4-7c1.2-2.1,2.9-4,4.8-5.5c1-0.9,2.2-1.5,3.5-1.9
			c1.1-0.2,2.3,0,3.3,0.5c2,0.9,4.1,2.7,6.5,2.1c0.1,0,0.2-0.2,0.2-0.3c0-0.1-0.2-0.2-0.3-0.2l0,0c-2.1,0.6-4.1-1.1-5.9-1.9
			C69,96.3,68,96,67,96c-1.3,0.2-2.6,0.7-3.7,1.5c-4.1,2.8-6.9,7.1-7.9,12c-0.6,2.8-0.5,6-2.2,8.4C53,118.2,53.4,118.4,53.6,118.2"
			/>
		<path id="Path_1149" d="M53.4,118.2c2.2-0.4,3.4-2.5,4-4.4c0.4-1.2,0.6-2.3,1-3.5c0.3-0.9,0.8-1.8,1.3-2.7
			c2.1-3.4,5.5-5.9,9.4-6.9c1.2-0.3,2.4-0.4,3.6-0.5c1.3,0,2.5-0.4,3.7-0.9c0.1-0.1,0.1-0.2,0.1-0.3c-0.1-0.1-0.2-0.1-0.3-0.1
			c-1,0.5-2.2,0.8-3.4,0.9c-1.1,0.1-2.1,0.2-3.2,0.4c-1.9,0.4-3.8,1.2-5.4,2.3c-3.4,2.2-5.8,5.6-6.8,9.5c-0.6,2.3-1.4,5.3-4.1,5.8
			C53,117.8,53.1,118.3,53.4,118.2"/>
		<path id="Path_1150" d="M75.2,77.3C75,79.2,75,81.1,75.1,83c0.2,1.8,0.5,3.7,0.9,5.5l0.6,3.2c0.1,0.3,0.5,0.2,0.4-0.1
			c-0.3-1.8-0.7-3.7-1-5.5c-0.4-1.8-0.5-3.7-0.5-5.6c0-1.1,0.1-2.2,0.2-3.2C75.7,77,75.2,77,75.2,77.3"/>
		<path id="Path_1151" d="M72,81.5c-0.3,1.8-0.3,3.7,0.1,5.5c0.2,0.9,0.5,1.8,0.9,2.6c0.3,0.9,0.7,1.7,1.2,2.5
			c0.2,0.2,0.5,0,0.4-0.2c-0.5-0.8-0.9-1.6-1.2-2.4c-0.3-0.8-0.6-1.7-0.9-2.5c-0.3-1.8-0.4-3.6-0.1-5.4C72.5,81.2,72.1,81.2,72,81.5
			"/>
		<path id="Path_1152" d="M74.1,74.8L76,73l-0.4-0.2c-0.3,1.3,0.4,2.7,1.6,3.4v-0.4c-0.9,0.4-1.8,0.9-2.7,1.5
			c-0.8,0.6-1.4,1.4-1.8,2.3c-0.4,0.9-0.8,1.9-1.2,2.9c-0.5,1-1,1.9-1.6,2.8c-0.6,0.9-1.3,1.7-2,2.6c-0.7,0.7-1.3,1.6-1.7,2.5
			c-0.9,1.6-0.5,3.6,0.9,4.7c1,0.6,2.1,1,3.3,1.2c1.3,0.3,2.6,0.5,3.9,0.7c0.3,0,0.3-0.4,0-0.4c-1.1-0.1-2.2-0.3-3.3-0.6
			c-1-0.2-2-0.5-3-0.9c-0.8-0.3-1.5-1-1.7-1.9c-0.2-0.9-0.1-1.8,0.3-2.6c0.4-0.9,1-1.7,1.7-2.4c0.6-0.8,1.3-1.5,1.9-2.3
			c0.6-0.8,1.1-1.7,1.6-2.6c0.4-0.9,0.8-1.8,1.2-2.7c0.4-1,1-1.9,1.7-2.7c0.9-0.7,1.8-1.2,2.8-1.6c0.1-0.1,0.1-0.2,0.1-0.3
			c0,0,0-0.1-0.1-0.1c-1-0.5-1.6-1.7-1.4-2.8c0-0.1,0-0.2-0.2-0.3c-0.1,0-0.2,0-0.2,0.1l-1.8,1.7C73.6,74.7,73.9,75,74.1,74.8"/>
		<path id="Path_1153" d="M68,88.5c1.1-3.8,2.7-7.5,4.6-10.9c0.5-1,1.1-1.9,1.7-2.9c0.2-0.2-0.2-0.5-0.4-0.2
			c-2.2,3.4-3.9,6.9-5.3,10.7c-0.4,1.1-0.7,2.1-1.1,3.2c0,0.1,0,0.2,0.2,0.3C67.8,88.6,68,88.6,68,88.5"/>
		<path id="Path_1154" d="M57.9,74.9c0.7-0.9,1.9-1.1,2.9-0.7c1.1,0.5,1.9,1.5,2.2,2.7c0.4,1.4,0.6,2.9,0.7,4.4
			c0.5,2.8,1.7,5.3,3.6,7.4c0.2,0.2,0.5-0.1,0.3-0.3c-2-2.2-3.2-4.9-3.6-7.8c-0.1-1.5-0.4-3-0.8-4.4c-0.4-1.2-1.3-2.1-2.5-2.5
			c-1.2-0.4-2.5-0.1-3.3,0.9C57.4,74.9,57.8,75.1,57.9,74.9"/>
		<path id="Path_1155" d="M52.2,85.7c-0.2,1.1-0.1,2.3,0.3,3.4c0.4,0.9,1.2,1.6,2.1,2c2.3,1,4.9,0.3,7.2-0.1l4.5-0.8
			c0.3,0,0.2-0.5-0.1-0.4l-3.7,0.6c-1.2,0.2-2.4,0.4-3.6,0.6c-2,0.3-4.5,0.2-5.7-1.8c-0.5-1.1-0.7-2.4-0.5-3.6
			C52.6,85.4,52.2,85.4,52.2,85.7"/>
		<path id="Path_1156" d="M63.8,51.3c-1.7,0.7-3.1,2.1-3.6,3.9c-0.8,2.2-0.8,4.5-1.2,6.7c-0.2,1.2-0.6,2.3-1.2,3.3c-0.5,1-1,2-1.3,3
			c-0.3,1.1-0.4,2.3-0.2,3.4c0.3,1.2,0.6,2.4,1.2,3.6c1.1,2.8,2.3,5.5,3.4,8.3c0.1,0.3,0.5,0.1,0.4-0.1l-2.9-7.2
			c-0.9-2.2-2.1-4.6-1.6-7c0.4-2.2,1.8-3.9,2.4-6c0.6-2.2,0.6-4.6,1.2-6.8c0.5-2,1.6-4,3.7-4.7C64.1,51.6,64,51.2,63.8,51.3"/>
		<path id="Path_1157" d="M63.7,51.2l-0.3,0.1c-0.1,0-0.1,0.1-0.1,0.1c-0.1,0.1,0,0.2,0.1,0.3c0.1,0,0.1,0,0.2,0l0.3-0.1
			c0.1,0,0.1-0.1,0.1-0.1c0-0.1,0-0.1,0-0.2C64,51.3,63.9,51.2,63.7,51.2C63.7,51.2,63.7,51.2,63.7,51.2"/>
		<path id="Path_1158" d="M64,51.2c-2.3-0.2-4.5,0.7-6,2.4c-1.6,1.6-2.8,3.5-3.6,5.5c-0.8,2.1-1.4,4.2-1.7,6.5
			c-0.5,2.4-0.2,4.8,0.9,7c0.8,1.2,1.6,2.2,2.6,3.2l3.1,3.5c0.2,0.2,0.5-0.1,0.3-0.3l-2.6-2.9c-0.8-0.9-1.7-1.8-2.4-2.8
			c-0.7-0.9-1.2-2-1.4-3.1c-0.2-1.1-0.2-2.3-0.1-3.5c0.3-4.3,1.8-8.5,4.5-11.9c1.5-1.8,3.8-3.6,6.4-3.1C64.1,51.7,64.3,51.3,64,51.2
			"/>
		<path id="Path_1159" d="M54.3,78.8c0.5-0.9,1.3-1.7,2.2-2.3c0.2-0.2,0-0.5-0.2-0.4c-1,0.6-1.8,1.5-2.4,2.5c-0.1,0.1,0,0.2,0.1,0.3
			C54.1,79,54.3,78.9,54.3,78.8"/>
		<path id="Path_1160" d="M26,93.6c2.2,1.1,4.5,1.8,7,2.1c2.3,0.1,4.6-0.4,6.6-1.5c4.2-2.2,7.4-5.9,11.8-7.9
			c2.5-1.1,5.2-1.7,7.9-1.8c0.1,0,0.2-0.1,0.2-0.2c0-0.1-0.1-0.2-0.2-0.2c-2.4,0-4.7,0.5-6.9,1.3c-2.2,0.9-4.2,2.1-6,3.6
			c-3.6,2.7-7.4,6.2-12.1,6.3c-2.8-0.1-5.5-0.8-8-2.1C26,93.1,25.8,93.5,26,93.6"/>
		<path id="Path_1161" d="M26.4,93.5c1.4-2.4,2.5-4.9,3.5-7.5c0.6-1.2,1.3-2.4,2.1-3.4c0.8-0.9,1.7-1.7,2.7-2.3
			c2.1-1.3,4.4-1.9,6.8-2c2.6,0,5.2,0.5,7.5,1.7c2.9,1.4,5.5,3.3,8.5,4.5c0.3,0.1,0.5-0.3,0.2-0.4c-2.7-1.2-5.2-2.9-7.8-4.2
			c-2.3-1.3-4.9-2-7.6-2.1c-2.5-0.1-4.9,0.5-7.1,1.6c-2.2,1.2-4,3-5.2,5.3c-1.5,2.8-2.3,5.9-4.1,8.6C25.8,93.5,26.2,93.7,26.4,93.5"
			/>
		<path id="Path_1162" d="M27.3,92.6c0.9-1.4,1.7-3,2.6-4.4c0.9-1.3,1.8-2.6,2.9-3.7c2.1-2.4,4.8-4.1,7.9-5.1
			c1.7-0.6,3.5-0.8,5.4-0.7c0.3,0,0.3-0.4,0-0.4c-3.3-0.1-6.6,0.7-9.3,2.5c-2.7,1.7-5,4-6.7,6.6c-1.1,1.6-2,3.4-3,5
			C26.7,92.6,27.1,92.9,27.3,92.6"/>
		<path id="Path_1163" d="M28,93.2c3.1-0.4,5.5-2.5,7.9-4.4c1.3-1,2.7-1.9,4.1-2.6c1.6-0.7,3.3-1.1,5.1-1.4c2-0.2,4-0.3,6-0.3
			c0.1,0,0.2-0.1,0.2-0.2c0-0.1-0.1-0.2-0.2-0.2c-3.5-0.2-7.1,0.2-10.4,1.3c-1.5,0.6-3,1.4-4.3,2.4c-1.3,0.9-2.4,1.9-3.7,2.8
			c-1.4,1.1-3,1.8-4.7,2C27.7,92.8,27.7,93.2,28,93.2"/>
		<path id="Path_1164" d="M44.6,72c2.8,2.3,5.6,4.6,8.5,6.8c2.9,2.2,5.9,4.3,8.9,6.4c1.7,1.2,3.4,2.3,5.1,3.4
			c0.2,0.2,0.5-0.2,0.2-0.4c-3.1-1.9-6.1-4-9-6.1c-2.9-2.1-5.8-4.3-8.7-6.6c-1.6-1.3-3.2-2.6-4.7-3.9C44.7,71.5,44.3,71.8,44.6,72"
			/>
		<path id="Path_1165" d="M60.8,83.4c0.1,0.3,0.3,0.6,0.4,0.9c0,0.1,0.1,0.1,0.1,0.1c0.1,0,0.1,0,0.2,0c0.1,0,0.1-0.1,0.1-0.1
			c0-0.1,0-0.1,0-0.2c-0.1-0.3-0.3-0.6-0.4-0.9c0-0.1-0.1-0.1-0.1-0.1c-0.1,0-0.2,0-0.3,0.2c0,0,0,0,0,0
			C60.8,83.3,60.8,83.4,60.8,83.4"/>
		<path id="Path_1166" d="M41.7,73.5c0.9-0.2,1.8,0,2.6,0.5c0.8,0.5,1.6,1,2.4,1.5c1.6,1.1,3.2,2.1,4.8,3.2c3.1,2.2,6.2,4.5,9.3,6.8
			c1.7,1.3,3.4,2.7,5.1,4.1c0.2,0.2,0.5-0.1,0.3-0.3c-3.1-2.5-6.2-4.9-9.3-7.2c-3.2-2.4-6.4-4.6-9.7-6.8c-0.9-0.6-1.8-1.2-2.7-1.7
			c-0.8-0.5-1.9-0.7-2.8-0.5c-0.1,0-0.2,0.2-0.2,0.3C41.5,73.5,41.6,73.5,41.7,73.5"/>
		<path id="Path_1167" d="M25.2,64.2c1.3-1.5,2.8-2.9,4.4-4.2c1.4-1.2,3.3-1.8,5.1-1.7c1.7,0.3,3.1,1.2,4.3,2.5
			c1.2,1.4,2.2,3,2.8,4.8c0.7,2.1,1.6,4.2,2.6,6.2c0.1,0.3,0.5,0,0.4-0.2c-1.9-3.5-2.5-7.7-5.2-10.8c-1.1-1.4-2.6-2.3-4.3-2.8
			c-1.8-0.3-3.7,0.1-5.2,1.2c-1.9,1.3-3.7,2.9-5.2,4.7C24.7,64.1,25,64.4,25.2,64.2"/>
		<path id="Path_1168" d="M25.1,64.1c-0.6,1.9-0.9,4-0.7,6c0.2,1.7,0.9,3.3,2.1,4.4c2.7,2.5,6.7,1.7,9.8,0.7
			c2.1-0.8,4.3-1.4,6.5-1.7c0.3,0,0.3-0.5,0-0.4c-3.7,0.2-6.9,2.3-10.6,2.6c-1.6,0.2-3.3-0.1-4.7-0.9c-1.4-1-2.3-2.4-2.6-4
			c-0.3-2.2-0.2-4.4,0.6-6.5c0-0.1,0-0.2-0.2-0.3C25.2,63.9,25.1,64,25.1,64.1"/>
		<path id="Path_1169" d="M53,80.2c0,0.5-0.1,0.9-0.2,1.3c0,0.1,0,0.2,0.2,0.3c0.1,0,0.2,0,0.3-0.2c0.2-0.5,0.2-1,0.3-1.4
			c0-0.1-0.1-0.2-0.2-0.2C53.1,80,53,80.1,53,80.2"/>
		<path id="Path_1170" d="M95,119.1l-0.7,1.4c-0.1,0.1,0,0.2,0.1,0.3c0.1,0.1,0.2,0,0.3-0.1c0,0,0,0,0,0l0.7-1.4
			c0.1-0.1,0-0.2-0.1-0.3C95.2,119,95.1,119,95,119.1"/>
		<path id="Path_1171" d="M19.8,43.7l4.3,1.5c1.3,0.4,2.6,1,3.8,1.7c2,1.5,3.5,3.7,4.1,6.1c0.4,1.5,0.7,3.1,0.8,4.7
			c0,0.3,0.5,0.3,0.4,0c-0.1-2.8-0.9-5.6-2.3-8c-0.6-1.1-1.5-2-2.5-2.8c-1.1-0.8-2.4-1.4-3.7-1.9c-1.6-0.6-3.3-1.2-4.9-1.7
			C19.6,43.1,19.5,43.6,19.8,43.7"/>
		<path id="Path_1172" d="M19.5,43.4c-0.1,1.8-0.1,3.7-0.2,5.5c0,1.5-0.1,3,0,4.5c-0.1,2.8,0.7,5.6,2.1,8c0.8,1.4,2.1,2.4,3.7,2.9
			c0.1,0,0.2,0,0.3-0.2c0-0.1,0-0.2-0.2-0.3c-2.7-0.7-4.3-3.7-4.9-6.2c-0.5-2.8-0.7-5.6-0.5-8.5c0.1-1.9,0.1-3.9,0.2-5.8
			c0-0.1-0.1-0.2-0.2-0.2C19.6,43.1,19.5,43.2,19.5,43.4"/>
		<path id="Path_1173" d="M20.3,45.3l3.1,4.9c1,1.6,2,3.1,2.9,4.7c0.5,0.9,0.9,1.8,1.3,2.8c0.1,0.3,0.5,0.2,0.4-0.1
			c-0.6-1.7-1.5-3.3-2.5-4.7c-1-1.6-2.1-3.3-3.1-4.9l-1.8-2.8C20.6,44.8,20.2,45.1,20.3,45.3"/>
		<path id="Path_1174" d="M44.5,49.5c0.1,1.1-0.1,2.2-0.4,3.2c-0.2,1.1-0.3,2.2-0.2,3.3c0.3,1.9,0.2,3.9-0.4,5.8
			c-0.3,0.9-0.9,1.7-1.8,2.2c-0.1,0.1-0.1,0.2-0.1,0.3s0.2,0.1,0.3,0.1l0,0c1.4-1,2.3-2.6,2.4-4.4c0.3-2.3-0.4-4.6,0.1-7
			c0.4-1.2,0.5-2.5,0.5-3.7C44.9,49.1,44.4,49.2,44.5,49.5"/>
		<path id="Path_1175" d="M44.6,49.2c-1.1,1.1-2.8,1.3-4.2,1.9c-0.7,0.3-1.3,0.7-1.8,1.2c-0.6,0.7-0.9,1.7-0.9,2.6
			c-0.1,1.3,0.1,2.5,0,3.8c0,0.3,0.4,0.3,0.4,0c0.2-1.9-0.5-4.3,0.8-6c0.9-1.2,2.6-1.5,3.9-2c0.8-0.3,1.5-0.7,2.2-1.3
			c0.1-0.1,0.1-0.2,0-0.3S44.7,49.1,44.6,49.2"/>
		<path id="Path_1176" d="M42.9,51.7c-1.7,1.8-2.7,4.2-2.8,6.6c0,0.3,0.4,0.3,0.4,0c0.1-2.4,1-4.6,2.7-6.3
			C43.5,51.8,43.1,51.5,42.9,51.7"/>
		<path id="Path_1177" d="M26.4,67.3c1.1,0.1,2.2,0.2,3.2,0.4c1.1,0.2,2.1,0.6,3,1.1c0.9,0.5,1.9,1,2.8,1.4c1,0.4,2,0.7,3.1,1
			c1.2,0.3,2.4,0.6,3.5,0.8c0.3,0.1,0.4-0.4,0.1-0.4c-2.1-0.4-4.2-1-6.3-1.7c-1-0.4-2-0.9-2.9-1.4c-0.9-0.5-2-0.9-3-1.2
			c-1.2-0.2-2.4-0.4-3.6-0.5C26.1,66.8,26.1,67.3,26.4,67.3"/>
		<path id="Path_1178" d="M3.9,65.2c2.5,1.8,5,3.7,8,4.3c1.4,0.3,3,0.3,4.4-0.1c1.4-0.5,2.7-1.2,3.9-2.1c1.4-1,2.7-2.2,4-3.4
			c0.2-0.2-0.1-0.5-0.3-0.3c-1.1,1.1-2.2,2.1-3.4,3c-1.1,0.9-2.4,1.7-3.7,2.2c-2.8,1.1-5.9,0.2-8.5-1.2c-1.4-0.8-2.8-1.8-4.1-2.8
			C3.9,64.6,3.7,65,3.9,65.2"/>
		<path id="Path_1179" d="M13.1,81.3c1.4-2.3,2.7-4.6,4.1-6.9c1.2-2,2.6-3.7,4.3-5.3c0.9-0.8,2-1.5,3.2-2c0.3-0.1,0-0.5-0.2-0.4
			c-4.3,1.9-6.9,6.1-9.2,10l-2.6,4.3c-0.1,0.1,0,0.2,0.1,0.3C12.9,81.4,13,81.4,13.1,81.3"/>
		<path id="Path_1180" d="M13.2,81.5c1.9-0.9,4.1-1,6.1-1.8c1.8-0.7,3.4-1.8,4.8-3.1c0.8-0.8,1.5-1.6,2.2-2.5
			c0.2-0.2-0.1-0.5-0.3-0.3c-1.2,1.5-2.6,2.9-4.2,4.1c-0.8,0.6-1.6,1-2.5,1.4c-1,0.4-2,0.6-3,0.8c-1.1,0.2-2.3,0.6-3.3,1
			C12.7,81.3,12.9,81.6,13.2,81.5"/>
		<path id="Path_1181" d="M16.1,79.3c2.2-2.3,4.7-4.3,7.5-5.9c0.3-0.1,0-0.5-0.2-0.4c-2.8,1.6-5.4,3.6-7.6,5.9
			C15.5,79.2,15.9,79.5,16.1,79.3"/>
	</g>
</g>
</svg>
