<svg id="Lag_1" data-name="Lag 1" xmlns="http://www.w3.org/2000/svg" viewBox="0 0 129 116.16"><defs><style>.cls-1{fill:none;}.cls-1,.cls-2{stroke:#000;stroke-miterlimit:10;stroke-width:3px;}</style></defs><path class="cls-1" d="M644.89,361.58s8-26,38-26c0,0,26,0,38,26l9,6s-1-15-17-30c0,0-9-9-27-10,0,0-10-1-19,2,0,0-10,3-16,10,0,0-4,3-11,15l-4,13Z" transform="translate(-618.39 -325.92)"/><path class="cls-1" d="M626.39,401.08s-3-39,23-38c0,0,7-1,17,12,0,0,5-9,15-10,0,0,6-1,13,5,0,0,11,9,10,31h-43s0-19,6-27" transform="translate(-618.39 -325.92)"/><path class="cls-1" d="M740.24,401.08V391c-.35-11.43-6.35-22.43-15.35-27.43-10-5-20,4-26.59,11.23" transform="translate(-618.39 -325.92)"/><rect class="cls-1" x="1.5" y="75.66" width="126" height="9"/><path class="cls-1" d="M623.89,411.58s1,24,26,29l68.5-.5s23.78-8,22.39-29.5" transform="translate(-618.39 -325.92)"/><line class="cls-1" x1="15.81" y1="84.66" x2="39" y2="114.61"/><line class="cls-1" x1="49.44" y1="84.66" x2="68.56" y2="114.39"/><line class="cls-1" x1="84.6" y1="84.66" x2="101" y2="114.16"/><line class="cls-1" x1="11.62" y1="102.39" x2="44.58" y2="84.66"/><line class="cls-1" x1="32" y1="114.16" x2="82" y2="85.16"/><line class="cls-1" x1="76.7" y1="114.16" x2="119.77" y2="84.66"/><polyline class="cls-1" points="8.88 55.86 22 48.16 28 56.16 36 48.16 44.48 56.16"/><polyline class="cls-1" points="86.06 66.4 93 60.16 101 66.16 112 60.16 122 66.16"/><circle class="cls-2" cx="61.5" cy="52.66" r="2.5"/><circle class="cls-1" cx="53.5" cy="64.66" r="1.5"/><circle class="cls-2" cx="71.5" cy="65.66" r="2.5"/><polyline class="cls-1" points="9.08 72 22.2 64.31 28.2 72.31 36.2 64.31 44.68 72.31"/><polyline class="cls-1" points="83.16 53.72 90.1 47.48 98.1 53.48 109.1 47.48 119.1 53.48"/></svg>