<svg id="Lag_1" data-name="Lag 1" xmlns="http://www.w3.org/2000/svg" viewBox="0 0 234.66 236.86"><defs><style>.cls-1{fill:#010101;}.cls-2{font-size:24px;}.cls-2,.cls-4{fill:#1d1d1b;font-family:Avenir-Light, Avenir;font-weight:300;}.cls-3{fill:none;stroke:#1d1d1b;stroke-miterlimit:10;}.cls-4{font-size:24.14px;}.cls-5{letter-spacing:-0.09em;}.cls-6{letter-spacing:0em;}</style></defs><path class="cls-1" d="M228.15,468.38c-.8.39-2.45-6.23-2.6-6.88a24.07,24.07,0,0,1-.24-7,122.05,122.05,0,0,1,2.44-16.58c1.1-5.54,2.32-11,3.19-16.61,1-6.35.56-12.24.19-18.6-.06-.89,1.33-.87,1.38,0,.35,6,.86,11.59,0,17.58-.71,4.85-1.58,9.66-2.67,14.44a117,117,0,0,0-3,17.3c-.21,3-.6,6.14.05,9.14.56,2.63,1.76,5,2.47,7.56a.69.69,0,0,1-.33.77l-.2.1c-.8.39-1.49-.81-.69-1.2Z" transform="translate(-174.92 -289.6)"/><path class="cls-1" d="M234.31,403.84c-.93.29-7.59,1.64-5.75-1.32.71-1.15,2.95-1.59,4.16-1.89,1.47-.37,2.68-.39,3.84.68a.71.71,0,0,1,.11.84c-.61,1.35-2.86,1.49-4.11,1.68s-3,.8-4.05-.21a.69.69,0,0,1-.18-.68c.45-1.28,2.09-1.7,3.27-2s2.71-.82,3.46.33c.87,1.31-.49,2.44-1.57,3-1.78.84-2.81.39-4.4-.59-.76-.47-.05-1.67.71-1.2s1.47,1.12,2.49.79c.45-.14,2.26-1,1.16-1.28-.66-.17-3.57.77-3.78,1.38l-.17-.67c.44.44,2.54-.13,3-.2.63-.1,2.66-.27,3-1l.11.84c-1.44-1.32-3.68.17-5.19.61-.26.07-1,.11-.4.12.35,0,.7,0,1,0a9.34,9.34,0,0,0,2.92-.51c.86-.26,1.21,1.08.35,1.34Z" transform="translate(-174.92 -289.6)"/><path class="cls-1" d="M233,402l-.17,0c-.88.23-1.17-1-.35-1.34,2.94-1.06,4-8.66,4-11.35,0-3.9-3.36-11.22-8.27-7-4.52,3.9-2.63,16.79,2,19.69.76.48.06,1.67-.7,1.2-5.65-3.55-8.53-22,.74-23.23,4.7-.61,7.14,3.64,7.56,7.73a24.47,24.47,0,0,1-1.42,9.39c-.67,2.16-1.35,4.11-3.58,4.91-.11-.44-.23-.89-.35-1.34l.17,0A.69.69,0,0,1,233,402Z" transform="translate(-174.92 -289.6)"/><path class="cls-1" d="M228.26,403.24c-2.72-5.59-7.55-14.38-15.2-12.73-8.25,1.79-1.16,11.07,3.42,12.73,1.76.63,10.18,2.34,11.14-.66.27-.84,1.61-.47,1.33.38-1.21,3.83-9.13,2.71-11.89,1.92-4.75-1.36-10-6.13-9.13-11.58.8-5,7.33-4.88,11-3.34,5.26,2.22,8.2,7.72,10.57,12.59.39.8-.81,1.5-1.21.69Z" transform="translate(-174.92 -289.6)"/><path class="cls-1" d="M234.55,401.59l-.16,0,.18-1.27c5.05,2.17,11.2-5.3,12.07-9.43a9.86,9.86,0,0,0,0-4.52c-1-2.73-3.63-3.18-5.84-2-2.55,1.3-2.58,4-3.52,6.32-.33.82-1.67.46-1.33-.37,1.36-3.36,1.77-7,6.06-7.79,3.47-.61,5.69,1.26,6.17,4.62a12.8,12.8,0,0,1-4.71,11.43c-2.5,2.08-6.23,4.43-9.58,3a.7.7,0,0,1,.17-1.27l.16,0c.88-.15,1.23,1.19.35,1.34Z" transform="translate(-174.92 -289.6)"/><path class="cls-1" d="M236.49,401.51c2.61-4,8.29-6.13,12.79-7.15,4-.92,7.12,1.71,6.11,5.88a11.69,11.69,0,0,1-9,8.54c-3.71.62-9-1.23-11.79-3.71-.67-.6.32-1.58,1-1a18.41,18.41,0,0,0,6.78,3.11,9.46,9.46,0,0,0,9.85-3.59c1.49-1.92,4.7-8-2.07-8a12.3,12.3,0,0,0-3.41,1c-3.27,1.14-7,2.56-9,5.59-.48.75-1.68.05-1.19-.7Z" transform="translate(-174.92 -289.6)"/><path class="cls-1" d="M253.78,395.5l-.18.13-.78-1c1.41-.54.78-5.17.7-6.18-.17-2.09-1.28-3.33-3.38-1.92a11.11,11.11,0,0,0-1.7,1.79c-.61.66-1.58-.32-1-1,1-1.08,2.1-2.61,3.68-2.84a3,3,0,0,1,3.57,2.13,17.05,17.05,0,0,1,.21,6.25c-.16,1.29-.43,2.59-1.75,3.09-.55.22-1.1-.55-.77-1a1.55,1.55,0,0,1,1-.77c.85-.28,1.2,1.07.35,1.34Z" transform="translate(-174.92 -289.6)"/><path class="cls-1" d="M242,383.34c-.6-2.53-1.56-5.71-4.24-6.76s-5.53,1-6.15,3.8c-.19.87-1.53.49-1.34-.38A6.18,6.18,0,0,1,237.1,375c3.82.65,5.44,4.76,6.21,8,.2.87-1.14,1.22-1.34.35Z" transform="translate(-174.92 -289.6)"/><path class="cls-1" d="M224.1,384.14a3.91,3.91,0,0,0-6.3-1.64,5.08,5.08,0,0,0-1.72,3.58c0,.28.35,2.66.27,2.67.88-.1.86,1.29,0,1.39l-.22,0a.68.68,0,0,1-.59-.35c-1.51-3-.94-7.2,2.16-9s6.49-.26,7.77,2.94c.33.82-1,1.17-1.35.34Z" transform="translate(-174.92 -289.6)"/><path class="cls-1" d="M229.66,380.24c-.39-1.58-1.74-4.75-4-4.05-1.8.56-2.36,3.5-2.63,5-.15.88-1.49.5-1.34-.37.39-2.24,1.44-5.89,4.23-6.1s4.5,2.82,5.07,5.14a.69.69,0,0,1-1.34.35Z" transform="translate(-174.92 -289.6)"/><path class="cls-1" d="M232.28,387.23c.62,2.95-.67,6.13-.77,9.1-.07,1.95.35,5.54-1.24,7.06-.32.31-.81-.18-.49-.49.84-.8.87-2.73.95-3.75.1-1.36,0-2.73.15-4.09.22-2.5,1.25-5.17.72-7.66-.09-.44.58-.61.68-.17Z" transform="translate(-174.92 -289.6)"/><path class="cls-1" d="M229.83,401.18c-.13.71-.79.71-1.39.62a21.34,21.34,0,0,1-3.94-1.11c-3.81-1.39-6.66-4.51-10-6.69-.37-.24,0-.84.35-.6,2.57,1.69,4.83,3.78,7.47,5.38a15.47,15.47,0,0,0,4.17,1.76c.35.09,2.56.92,2.64.46s.74-.25.67.18Z" transform="translate(-174.92 -289.6)"/><path class="cls-1" d="M236.38,400.94l0,.16-.64-.08a16.94,16.94,0,0,0,2.31-3.71c.43-1,.8-2.09,1.31-3.09,1.11-2.18,2.73-4.05,2.68-6.62,0-.45.69-.44.7,0,0,2.35-1.2,4.16-2.33,6.12a42.93,42.93,0,0,0-1.93,4.33,16,16,0,0,1-2.14,3.31c-.16.2-.59.24-.64-.09l0-.16c-.05-.44.62-.62.67-.18Z" transform="translate(-174.92 -289.6)"/><path class="cls-1" d="M248.71,400.12c-.43,1.13-1.45,1.59-2.47,2.13a9.76,9.76,0,0,1-4.58,1.33,28,28,0,0,1-6-.52,16.43,16.43,0,0,1-2.46-.8,11.32,11.32,0,0,0-2.89-1c-.45,0-.44-.72,0-.7,1.23.06,2.44.84,3.59,1.27a18.19,18.19,0,0,0,4.87.94c1.94.18,4,.37,5.84-.43,1.08-.46,3-1.24,3.48-2.39.16-.42.83-.23.66.19Z" transform="translate(-174.92 -289.6)"/><path class="cls-1" d="M225.38,450c-7.21-1.25-11.18-7.29-14.37-13.22a52.4,52.4,0,0,1-4-10.49c-.77-2.69-2.61-6.28-2.56-9.09l-1.26.44c3.93,5.54,9.75,9.63,13.91,15a37.86,37.86,0,0,1,5.05,9.18c1,2.55,2.83,5.79,2.91,8.57,0,.9,1.41.8,1.38-.1-.06-2.51-1.39-5.17-2.35-7.48a45.3,45.3,0,0,0-4.49-9.1c-4.38-6.25-10.9-10.72-15.27-16.89a.7.7,0,0,0-1.26.45c-.06,3.14,1.93,7.05,2.81,10.07a52.94,52.94,0,0,0,4.62,11.3c3.3,5.88,7.49,11.46,14.61,12.69a.69.69,0,0,0,.27-1.36Z" transform="translate(-174.92 -289.6)"/><path class="cls-1" d="M226.44,449.87c-2.69-.23-6-4.71-7.52-6.59s-3.06-3.92-4.4-6c-3.05-4.69-6.94-9.67-9-14.93a.69.69,0,0,0-1.31.46,49.61,49.61,0,0,0,4.71,8.25c1.86,2.95,3.54,6,5.62,8.83a67,67,0,0,0,5.55,6.79c1.52,1.59,3.66,4.34,6,4.54.88.08,1.16-1.29.28-1.36Z" transform="translate(-174.92 -289.6)"/><text class="cls-2" transform="matrix(0.99, 0.16, -0.16, 0.99, 120.25, 20.21)">J</text><text class="cls-2" transform="translate(135.76 22.93) rotate(17.9)">e</text><text class="cls-2" transform="translate(152.37 28.84) rotate(25.27)">l</text><text class="cls-2" transform="translate(161.46 33.27) rotate(31.81)">s</text><text class="cls-2" transform="translate(173.63 41.25) rotate(38.44)"> </text><text class="cls-2" transform="translate(181.85 47.87) rotate(45.63)">2</text><text class="cls-2" transform="translate(193.28 60.01) rotate(54.4)">0</text><text class="cls-2" transform="matrix(0.45, 0.89, -0.89, 0.45, 202.73, 73.77)">0</text><text class="cls-2" transform="translate(209.95 88.79) rotate(72.09)">9</text><path class="cls-3" d="M400.12,416.67A112.37,112.37,0,1,1,286.81,301.22" transform="translate(-174.92 -289.6)"/><path class="cls-3" d="M399.27,399.29a113.6,113.6,0,0,1,.85,17.38" transform="translate(-174.92 -289.6)"/><path class="cls-3" d="M398.83,396.23" transform="translate(-174.92 -289.6)"/><text class="cls-4" transform="translate(72.22 146.31)"><tspan class="cls-5">T</tspan><tspan x="11.63" y="0">usin</tspan><tspan class="cls-6" x="54.55" y="0">d</tspan><tspan x="69.33" y="0">fryd</tspan></text></svg>